<?xml version="1.0" encoding="utf-8"?>
<!-- Generator: Adobe Illustrator 24.0.1, SVG Export Plug-In . SVG Version: 6.00 Build 0)  -->
<svg version="1.1" id="Layer_1" xmlns="http://www.w3.org/2000/svg" xmlns:xlink="http://www.w3.org/1999/xlink" x="0px" y="0px"
	 viewBox="0 0 100 100" style="enable-background:new 0 0 100 100;" xml:space="preserve">
<style type="text/css">
	.st0{fill:#2D2D2D;}
	.st1{fill:none;stroke:#2D2D2D;stroke-miterlimit:10;}
	.st2{fill:#FFFFFF;}
</style>
<g>
	<path class="st0" d="M15,11.6c23,0,45.8,0,68.8,0c0,25.9,0,51.8,0,77.8c-23,0-45.8,0-68.8,0C15,63.4,15,37.5,15,11.6z M82,45.1
		c-3.9,0-7.9,0-11.8,0c0,4.5,0,8.9,0,13.3c3.9,0,7.9,0,11.8,0C82,53.9,82,49.5,82,45.1z M82,28.2c0-4.5,0-8.9,0-13.3
		c-3.9,0-7.9,0-11.8,0c0,4.5,0,8.9,0,13.3C74.2,28.2,78.1,28.2,82,28.2z M82,43.3c0-4.5,0-8.9,0-13.3c-3.9,0-7.9,0-11.8,0
		c0,4.5,0,8.9,0,13.3C74.2,43.3,78.1,43.3,82,43.3z M41.7,58.4c0-4.5,0-8.9,0-13.3c-3.9,0-7.9,0-11.8,0c0,4.5,0,8.9,0,13.3
		C33.9,58.4,37.8,58.4,41.7,58.4z M68.5,58.4c0-4.5,0-8.9,0-13.3c-3.9,0-7.9,0-11.7,0c0,4.5,0,8.9,0,13.3
		C60.7,58.4,64.6,58.4,68.5,58.4z M56.8,30c0,4.5,0,8.9,0,13.3c3.9,0,7.9,0,11.7,0c0-4.5,0-8.9,0-13.3C64.6,30,60.7,30,56.8,30z
		 M43.4,28.2c3.9,0,7.8,0,11.6,0c0-4.5,0-8.9,0-13.2c-3.9,0-7.8,0-11.6,0C43.4,19.4,43.4,23.7,43.4,28.2z M55.1,43.3
		c0-4.5,0-8.9,0-13.3c-3.9,0-7.8,0-11.6,0c0,4.5,0,8.9,0,13.3C47.4,43.3,51.2,43.3,55.1,43.3z M55.1,58.4c0-4.5,0-8.9,0-13.3
		c-3.9,0-7.8,0-11.6,0c0,4.5,0,8.9,0,13.3C47.4,58.4,51.2,58.4,55.1,58.4z M70.2,73.2c4,0,8,0,11.8,0c0-4.4,0-8.7,0-13
		c-3.9,0-7.9,0-11.8,0C70.2,64.5,70.2,68.8,70.2,73.2z M30,14.9c0,4.5,0,8.9,0,13.3c3.9,0,7.9,0,11.7,0c0-4.5,0-8.9,0-13.3
		C37.7,14.9,33.9,14.9,30,14.9z M68.5,28.2c0-4.5,0-8.9,0-13.3c-3.9,0-7.8,0-11.7,0c0,4.5,0,8.9,0,13.3
		C60.7,28.2,64.6,28.2,68.5,28.2z M41.8,43.3c0-4.5,0-8.9,0-13.3c-3.9,0-7.9,0-11.8,0c0,4.5,0,8.9,0,13.3
		C33.9,43.3,37.7,43.3,41.8,43.3z M41.7,73.2c0-4.4,0-8.7,0-13.1c-3.9,0-7.9,0-11.8,0c0,4.4,0,8.7,0,13.1
		C33.9,73.2,37.7,73.2,41.7,73.2z M56.8,73.2c3.9,0,7.9,0,11.7,0c0-4.4,0-8.7,0-13.1c-3.9,0-7.9,0-11.7,0
		C56.8,64.5,56.8,68.8,56.8,73.2z M55.1,73.2c0-4.4,0-8.7,0-13.1c-3.9,0-7.8,0-11.6,0c0,4.4,0,8.7,0,13.1
		C47.4,73.2,51.2,73.2,55.1,73.2z M16.6,45.1c0,4.5,0,8.9,0,13.3c3.8,0,7.7,0,11.6,0c0-4.5,0-8.9,0-13.3
		C24.4,45.1,20.6,45.1,16.6,45.1z M28.2,28.2c0-4.5,0-8.9,0-13.3c-3.8,0-7.8,0-11.6,0c0,4.5,0,8.9,0,13.3
		C20.6,28.2,24.4,28.2,28.2,28.2z M16.6,30c0,4.5,0,8.9,0,13.3c3.8,0,7.8,0,11.6,0c0-4.5,0-8.9,0-13.3C24.4,30,20.6,30,16.6,30z
		 M16.6,73.2c3.8,0,7.8,0,11.6,0c0-4.4,0-8.7,0-13.1c-3.8,0-7.7,0-11.6,0C16.6,64.5,16.6,68.8,16.6,73.2z M70.2,75
		c0,4.3,0,8.5,0,12.7c3.9,0,7.9,0,11.8,0c0-4.3,0-8.5,0-12.7C78.1,75,74.2,75,70.2,75z M41.7,87.7c0-4.3,0-8.5,0-12.7
		c-3.9,0-7.9,0-11.8,0c0,4.3,0,8.4,0,12.7C33.9,87.7,37.7,87.7,41.7,87.7z M43.4,75c0,4.3,0,8.4,0,12.7c3.9,0,7.8,0,11.7,0
		c0-4.3,0-8.4,0-12.7C51.2,75,47.4,75,43.4,75z M56.8,87.7c3.9,0,7.8,0,11.7,0c0-4.3,0-8.4,0-12.7c-3.9,0-7.9,0-11.7,0
		C56.8,79.3,56.8,83.5,56.8,87.7z M16.6,75c0,4.3,0,8.5,0,12.7c3.8,0,7.8,0,11.6,0c0-4.3,0-8.4,0-12.7C24.4,75,20.6,75,16.6,75z"/>
	<g>
		<path d="M84.2,10.8h-1.7V4.4l-2,0.6V3.6L84,2.4h0.2V10.8z"/>
	</g>
	<g>
		<path d="M72.5,10.8h-5.8V9.7l2.7-2.9c0.4-0.4,0.6-0.8,0.8-1.1c0.2-0.3,0.3-0.6,0.3-0.9c0-0.4-0.1-0.7-0.3-0.9
			c-0.2-0.2-0.5-0.3-0.8-0.3c-0.4,0-0.7,0.1-0.9,0.4c-0.2,0.3-0.3,0.6-0.3,1h-1.7c0-0.5,0.1-1,0.4-1.4s0.6-0.8,1-1
			c0.4-0.2,1-0.4,1.5-0.4c0.9,0,1.5,0.2,2,0.6s0.7,1,0.7,1.8c0,0.4-0.1,0.8-0.3,1.3c-0.2,0.4-0.6,0.9-1.1,1.5l-1.9,2h3.6V10.8z"/>
	</g>
	<g>
		<path d="M54.6,5.9h0.9c0.4,0,0.7-0.1,0.9-0.3c0.2-0.2,0.3-0.5,0.3-0.8c0-0.3-0.1-0.6-0.3-0.8c-0.2-0.2-0.5-0.3-0.8-0.3
			c-0.3,0-0.6,0.1-0.8,0.3c-0.2,0.2-0.3,0.4-0.3,0.7h-1.7c0-0.4,0.1-0.8,0.4-1.2s0.6-0.6,1-0.8c0.4-0.2,0.9-0.3,1.4-0.3
			c0.9,0,1.6,0.2,2.1,0.6c0.5,0.4,0.8,1,0.8,1.8c0,0.4-0.1,0.7-0.4,1.1s-0.5,0.6-0.9,0.7c0.5,0.2,0.8,0.4,1.1,0.8
			c0.2,0.3,0.3,0.7,0.3,1.2c0,0.7-0.3,1.3-0.8,1.8s-1.3,0.7-2.2,0.7c-0.8,0-1.5-0.2-2.1-0.7s-0.8-1-0.8-1.8h1.7
			c0,0.3,0.1,0.6,0.4,0.8s0.5,0.3,0.9,0.3c0.4,0,0.7-0.1,0.9-0.3s0.3-0.5,0.3-0.8c0-0.8-0.5-1.3-1.4-1.3h-0.9V5.9z"/>
	</g>
	<g>
		<path d="M44.5,7.6h1V9h-1v1.8h-1.7V9h-3.4l-0.1-1l3.5-5.5h1.7V7.6z M41,7.6h1.9v-3l-0.1,0.2L41,7.6z"/>
	</g>
	<g>
		<path d="M26.5,6.7l0.5-4.3h4.7v1.4h-3.3l-0.2,1.8c0.4-0.2,0.8-0.3,1.3-0.3c0.8,0,1.4,0.2,1.9,0.7c0.5,0.5,0.7,1.2,0.7,2.1
			c0,0.5-0.1,1-0.3,1.5c-0.2,0.4-0.6,0.8-1,1c-0.4,0.2-0.9,0.4-1.5,0.4c-0.5,0-1-0.1-1.4-0.3c-0.4-0.2-0.8-0.5-1-0.9
			c-0.3-0.4-0.4-0.8-0.4-1.3h1.6c0,0.3,0.2,0.6,0.4,0.8c0.2,0.2,0.5,0.3,0.8,0.3c0.4,0,0.7-0.1,0.9-0.4s0.3-0.7,0.3-1.1
			c0-0.5-0.1-0.8-0.4-1.1c-0.2-0.3-0.6-0.4-1-0.4c-0.4,0-0.7,0.1-1,0.3L27.8,7L26.5,6.7z"/>
	</g>
	<g>
		<path d="M17.1,2.3v1.4H17c-0.8,0-1.4,0.2-1.8,0.6c-0.5,0.4-0.7,0.9-0.8,1.6c0.4-0.5,1-0.7,1.7-0.7c0.7,0,1.3,0.3,1.7,0.8
			c0.4,0.5,0.6,1.2,0.6,2.1c0,0.5-0.1,1-0.4,1.5c-0.2,0.4-0.6,0.8-1,1c-0.4,0.2-0.9,0.4-1.5,0.4c-0.9,0-1.6-0.3-2.1-0.9
			c-0.5-0.6-0.8-1.4-0.8-2.5V6.9c0-0.9,0.2-1.7,0.5-2.4c0.3-0.7,0.8-1.2,1.5-1.6s1.4-0.6,2.2-0.6H17.1z M15.5,6.5
			c-0.3,0-0.5,0.1-0.7,0.2c-0.2,0.1-0.4,0.3-0.5,0.6v0.5c0,0.6,0.1,1,0.3,1.3c0.2,0.3,0.5,0.5,0.9,0.5c0.4,0,0.6-0.1,0.9-0.4
			c0.2-0.3,0.3-0.6,0.3-1.1c0-0.5-0.1-0.8-0.3-1.1C16.2,6.7,15.9,6.5,15.5,6.5z"/>
	</g>
	<circle class="st1" cx="16.2" cy="94.6" r="4.2"/>
	<circle class="st0" cx="28.2" cy="94.6" r="4.5"/>
	<circle class="st0" cx="41.8" cy="94.6" r="4.5"/>
	<circle class="st0" cx="55.1" cy="94.6" r="4.5"/>
	<circle class="st0" cx="68.5" cy="94.6" r="4.5"/>
	<g>
		<path class="st2" d="M28.3,93.9l0.9-1.7h1.2l-1.5,2.5l1.5,2.5h-1.2l-1-1.8l-1,1.8h-1.2l1.5-2.5l-1.5-2.5h1.2L28.3,93.9z"/>
	</g>
	<g>
		<path class="st2" d="M42.5,97.2h-1v-3.9l-1.2,0.4v-0.8l2.1-0.7h0.1V97.2z"/>
	</g>
	<g>
		<path class="st2" d="M56.9,97.2h-3.5v-0.7l1.6-1.7c0.2-0.2,0.4-0.5,0.5-0.6s0.2-0.4,0.2-0.5c0-0.2-0.1-0.4-0.2-0.5
			c-0.1-0.1-0.3-0.2-0.5-0.2c-0.2,0-0.4,0.1-0.5,0.2c-0.1,0.2-0.2,0.4-0.2,0.6h-1c0-0.3,0.1-0.6,0.2-0.8c0.1-0.3,0.4-0.5,0.6-0.6
			s0.6-0.2,0.9-0.2c0.5,0,0.9,0.1,1.2,0.4c0.3,0.2,0.4,0.6,0.4,1.1c0,0.2-0.1,0.5-0.2,0.8c-0.1,0.3-0.4,0.6-0.7,0.9l-1.1,1.2h2.2
			V97.2z"/>
	</g>
	<g>
		<path class="st2" d="M67.9,94.2h0.5c0.3,0,0.4-0.1,0.6-0.2c0.1-0.1,0.2-0.3,0.2-0.5c0-0.2-0.1-0.4-0.2-0.5
			c-0.1-0.1-0.3-0.2-0.5-0.2c-0.2,0-0.4,0.1-0.5,0.2c-0.1,0.1-0.2,0.2-0.2,0.4h-1c0-0.3,0.1-0.5,0.2-0.7c0.1-0.2,0.3-0.4,0.6-0.5
			s0.5-0.2,0.8-0.2c0.5,0,1,0.1,1.3,0.4c0.3,0.3,0.5,0.6,0.5,1.1c0,0.2-0.1,0.4-0.2,0.6s-0.3,0.3-0.6,0.4c0.3,0.1,0.5,0.3,0.6,0.5
			c0.1,0.2,0.2,0.4,0.2,0.7c0,0.4-0.2,0.8-0.5,1.1s-0.8,0.4-1.3,0.4c-0.5,0-0.9-0.1-1.2-0.4c-0.3-0.3-0.5-0.6-0.5-1.1h1
			c0,0.2,0.1,0.3,0.2,0.5c0.1,0.1,0.3,0.2,0.5,0.2c0.2,0,0.4-0.1,0.6-0.2c0.1-0.1,0.2-0.3,0.2-0.5c0-0.5-0.3-0.8-0.8-0.8h-0.5V94.2z
			"/>
	</g>
	<g>
		<circle class="st0" cx="82" cy="94.6" r="4.5"/>
		<g>
			<path class="st2" d="M83.4,95.3H84v0.8h-0.6v1.1h-1v-1.1h-2.1l0-0.6l2.1-3.3h1V95.3z M81.3,95.3h1.1v-1.8l-0.1,0.1L81.3,95.3z"/>
		</g>
	</g>
</g>
</svg>
