<?xml version="1.0" encoding="utf-8"?>
<!-- Generator: Adobe Illustrator 24.0.1, SVG Export Plug-In . SVG Version: 6.00 Build 0)  -->
<svg version="1.1" id="Layer_1" xmlns="http://www.w3.org/2000/svg" xmlns:xlink="http://www.w3.org/1999/xlink" x="0px" y="0px"
	 viewBox="0 0 24 24" style="enable-background:new 0 0 24 24;" xml:space="preserve">
<style type="text/css">
	.st0{opacity:0.4;fill:#C3CEF5;enable-background:new    ;}
	.st1{fill:#3D63E2;}
	.st2{fill-rule:evenodd;clip-rule:evenodd;fill:#3D63E2;}
</style>
<path class="st0" d="M22,7.8v7.3c-0.3-0.1-0.6-0.2-1-0.3l-0.3,0l-0.3-0.5c-0.5-1.1-1.4-1.8-2.5-1.8s-1.9,0.6-2.5,1.8l-0.3,0.5
	l-0.3,0c-1.2,0.2-2.1,0.9-2.4,1.8c-0.3,1,0,2,0.9,2.9l0.3,0.3l0,0.1c-0.2,0.9-0.1,1.6,0.1,2.1h-6C4.2,22,2,19.8,2,16.2V7.8
	C2,4.2,4.2,2,7.8,2h8.4C19.8,2,22,4.2,22,7.8z"/>
<path class="st1" d="M19.1,14.9l0.3,0.6c0.2,0.3,0.6,0.6,0.9,0.7l0.4,0.1c1.3,0.2,1.6,1.2,0.7,2.1l-0.4,0.4
	c-0.3,0.3-0.4,0.8-0.3,1.2l0,0.2c0.4,1.6-0.5,2.2-1.9,1.4l-0.3-0.2c-0.4-0.2-0.9-0.2-1.3,0l-0.3,0.2c-1.4,0.8-2.2,0.2-1.9-1.4
	l0.1-0.2c0.1-0.4-0.1-0.9-0.3-1.2l-0.4-0.4c-0.9-1-0.6-1.9,0.7-2.1l0.4-0.1c0.3-0.1,0.8-0.4,0.9-0.7l0.3-0.6
	C17.5,13.7,18.5,13.7,19.1,14.9z"/>
<path class="st2" d="M16.1,7.9c0.3,0.3,0.4,0.7,0.1,1.1l-2.3,3c-0.6,0.8-1.7,0.9-2.5,0.3l0,0l-1.8-1.4c-0.1-0.1-0.3-0.1-0.4,0
	c0,0,0,0,0,0l-2.4,3.1c-0.3,0.3-0.7,0.4-1.1,0.1c-0.3-0.3-0.4-0.7-0.1-1.1l2.4-3.1C8.7,9.2,9.8,9,10.6,9.6l0,0l1.8,1.4
	c0.1,0.1,0.3,0.1,0.4,0l2.3-3C15.3,7.7,15.8,7.7,16.1,7.9z"/>
</svg>
