<?xml version="1.0" encoding="utf-8"?>
<!-- Generator: Adobe Illustrator 24.0.1, SVG Export Plug-In . SVG Version: 6.00 Build 0)  -->
<svg version="1.1" id="Layer_1" xmlns="http://www.w3.org/2000/svg" xmlns:xlink="http://www.w3.org/1999/xlink" x="0px" y="0px"
	 viewBox="0 0 24 24" style="enable-background:new 0 0 24 24;" xml:space="preserve">
<style type="text/css">
	.st0{opacity:0.4;fill:#C3CEF5;enable-background:new    ;}
	.st1{fill:#3D63E2;}
</style>
<path class="st0" d="M12,5.3v16c-0.2,0-0.4,0-0.5-0.1l0,0c-1.9-1-5.3-2.1-7.4-2.4l-0.3,0c-1-0.1-1.7-1-1.7-2V4.7c0-1.2,1-2.1,2.2-2
	C6.3,2.8,9.4,3.9,11.2,5l0.2,0.1C11.6,5.2,11.8,5.3,12,5.3z"/>
<path class="st1" d="M22,4.7v12.1c0,1-0.8,1.9-1.7,2l-0.3,0c-2.2,0.3-5.5,1.4-7.5,2.5c-0.1,0.1-0.3,0.1-0.5,0.1v-16
	c0.2,0,0.4-0.1,0.5-0.1l0.2-0.1c1.8-1.1,5-2.2,7.1-2.4h0.1C21,2.6,22,3.5,22,4.7z"/>
<path class="st1" d="M7.8,9.2H5.5c-0.4,0-0.8-0.3-0.8-0.8s0.3-0.8,0.8-0.8h2.2c0.4,0,0.8,0.3,0.8,0.8S8.2,9.2,7.8,9.2z"/>
<path class="st1" d="M8.5,12.2h-3c-0.4,0-0.8-0.3-0.8-0.8s0.3-0.8,0.8-0.8h3c0.4,0,0.8,0.3,0.8,0.8S8.9,12.2,8.5,12.2z"/>
</svg>
