<svg id="Layer_1" data-name="Layer 1" xmlns="http://www.w3.org/2000/svg" viewBox="0 0 1000 1000"><defs><style>.cls-1{fill:#2b65b0;}.cls-2{fill:#fff;}.cls-3{fill:#cad2ea;}.cls-4{fill:#2c66b1;}.cls-5{fill:#6a7bbc;}.cls-6{fill:#2b66b1;}.cls-7{fill:#2b66b0;}.cls-8{fill:#feffff;}.cls-9{fill:#fefeff;}.cls-10{fill:#6779bb;}.cls-11{fill:#2c67b1;}.cls-12{fill:#687abb;}.cls-13{fill:#fdfdfe;}</style></defs><title>ShareTee</title><path class="cls-1" d="M515.36,1000H488.48a14.92,14.92,0,0,0-3.19-.85c-3-.12-6.06,0-9.1,0h-7.86c-2.86-.28-5.72-.6-8.59-.81a457.68,457.68,0,0,1-53.18-7.15A486.11,486.11,0,0,1,288,952.5Q151.35,887.3,72.6,758a459.57,459.57,0,0,1-31.8-62.27c2.06-.18,4.11-.5,6.17-.5q59.23,0,118.48,0c6.94,0,5.66-.49,9.05,5a378.4,378.4,0,0,0,84.21,96.33q100.43,81.4,229.72,86.23a368.89,368.89,0,0,0,48.39-1.5,377.53,377.53,0,0,0,59-10.17A383.37,383.37,0,0,0,826.81,701c.76-1.22,1.57-2.42,2.26-3.68a3.87,3.87,0,0,1,3.93-2.16c.64,0,1.28,0,1.92,0q60.69,0,121.36,0a42,42,0,0,1,4.72.51c-.6,1.48-1.17,3-1.81,4.43a501,501,0,0,1-306.3,276.38,468.5,468.5,0,0,1-84,18.84c-11.72,1.49-23.51,2.52-35.26,3.75-1.56,0-3.13-.15-4.68-.05C524.39,999.32,519.87,999.68,515.36,1000Z"/><path class="cls-1" d="M490.4,0h21.12c1.4.12,2.79.29,4.19.35,4.37.2,8.75.37,13.12.54C546,2.22,563.2,3.8,580.26,6.54a474.94,474.94,0,0,1,65.31,15Q811.94,73.13,912,215.73a481.22,481.22,0,0,1,46.37,82.62c.7,1.58,1.79,3.07,1.5,5-2.08-.05-4.15-.16-6.23-.16H829.41c-48-77.35-113.95-132.83-199.68-163.37s-172-30.5-257.61,0-151.64,86-199.7,163.37H48.2c-2.08,0-4.15.12-6.23.18-.31-2.06.91-3.68,1.68-5.39Q104,163.59,226.7,82.19A490.2,490.2,0,0,1,391.76,12.25a517.6,517.6,0,0,1,55.31-9.14c5.72-.63,11.47-.89,17.21-1.31,2.38.37,4.74.53,7-.6l3-.14c4.51-.05,9-.06,13.53-.2A9.81,9.81,0,0,0,490.4,0Z"/><path class="cls-2" d="M464.28,1.8c-5.74.42-11.49.68-17.21,1.31a517.6,517.6,0,0,0-55.31,9.14A490.2,490.2,0,0,0,226.7,82.19q-122.79,81.27-183,215.75c-.77,1.71-2,3.33-1.68,5.39-1.87,1.4-2.44,3.41-2.67,5.58-.7,1.42-1.48,2.8-2.07,4.25q-7.69,18.76-13.64,38.14c-3,9.72-6,19.44-8,29.41a11.79,11.79,0,0,0-1.23,5.92c-.58,2-1.27,3.92-1.71,5.93a510.83,510.83,0,0,0-8.54,51.88c-.54,4.74-.78,9.52-1.16,14.29A7.57,7.57,0,0,0,2.34,464l-.61,13.75c-.55.28-1.07.87-1.73.18V0H474.09c.05.35.11.71.16,1.06l-3,.14A14.69,14.69,0,0,0,464.28,1.8Z"/><path class="cls-2" d="M40.8,695.69A459.57,459.57,0,0,0,72.6,758Q151.39,887.19,288,952.5a486.11,486.11,0,0,0,118.6,38.65,457.68,457.68,0,0,0,53.18,7.15c2.87.21,5.73.53,8.59.81a4.41,4.41,0,0,1,0,.89H0V517.27c1.61,1.8,1.47,4.08,1.61,6.22.28,4.22.38,8.45.56,12.68a8.16,8.16,0,0,0,.68,5.1c.1,1.91.12,3.84.31,5.74,1.55,15.28,3.47,30.5,6.44,45.57,1.49,7.52,3.24,15,4.87,22.48l.91,3a23.85,23.85,0,0,0,.32,2.82A497.93,497.93,0,0,0,38.41,690.1a27.86,27.86,0,0,0,1.86,3.26C40.45,694.13,40.63,694.91,40.8,695.69Z"/><path class="cls-2" d="M959.89,303.31c.29-1.89-.8-3.38-1.5-5A481.22,481.22,0,0,0,912,215.73Q811.82,73.38,645.57,21.54a474.94,474.94,0,0,0-65.31-15C563.2,3.8,546,2.22,528.83.89a8.7,8.7,0,0,1,0-.89H1000V463.53c-1.24-1.46-.81-3.27-1.07-4.94-.37-4.6-.61-9.2-1.13-13.78-1.61-14.06-3.64-28.06-6.48-41.93-1.11-5.43-2.49-10.81-3.75-16.21a12,12,0,0,0-1.28-6c-.19-.93-.36-1.88-.59-2.81a482.83,482.83,0,0,0-21.76-66.39c-.36-.87-.88-1.67-1.33-2.51C962.33,306.77,961.83,304.69,959.89,303.31Z"/><path class="cls-2" d="M533.59,999.1c11.75-1.23,23.54-2.26,35.26-3.75a468.5,468.5,0,0,0,84-18.84,501,501,0,0,0,306.3-276.38c.64-1.46,1.21-3,1.81-4.43l.66-2.37c.72-1.4,1.55-2.76,2.15-4.21a490,490,0,0,0,21.62-65.44c.47-1.84.71-3.74,1.06-5.62l.93-3c.39-1.54.8-3.08,1.16-4.64a472.8,472.8,0,0,0,8.28-47.09c.92-7.28,1.42-14.6,2.1-21.91l.13-4.81,0-.07h.45l.44,0V1000H533.59A4.51,4.51,0,0,1,533.59,999.1Z"/><path class="cls-3" d="M987.42,615l-.93,3H923.24q-26.36,0-52.71,0c-1.72,0-3.52-.37-5.43.66-.46,1.3-1,2.78-1.54,4.27a339.52,339.52,0,0,1-15.77,39.06c-4.47,9.19-9.35,18.17-14,27.26-.54,1.06-1.63,2-.82,3.78H955.44c2.07,0,4.14.14,6.22.21L961,695.7a42,42,0,0,0-4.72-.51q-60.67,0-121.36,0c-.64,0-1.28,0-1.92,0a3.87,3.87,0,0,0-3.93,2.16c-.69,1.26-1.5,2.46-2.26,3.68a383.37,383.37,0,0,1-231,170.05,377.53,377.53,0,0,1-59,10.17,368.89,368.89,0,0,1-48.39,1.5q-129.14-5-229.72-86.23a378.4,378.4,0,0,1-84.21-96.33c-3.39-5.5-2.11-5-9.05-5q-59.25,0-118.48,0c-2.06,0-4.11.32-6.17.5-.17-.78-.35-1.56-.53-2.33,2.07-.08,4.14-.24,6.22-.24H162.58c1.6,0,3.2,0,4.79,0,.76,0,1.64.09,2-1.2-2.48-4.59-5.13-9.32-7.62-14.12s-4.94-9.68-7.26-14.6q-3.39-7.14-6.46-14.44c-2.11-5-4-10.1-6-15.15s-3.35-10.28-5.75-15.5q-60.54,0-120.91,0c-.3-1-.61-2-.91-3l116,0c.63,0,1.28,0,1.91,0,.89-.08,1.77-.24,3-.42-1.73-6.32-3.45-12.28-5-18.28s-3-12.09-4.25-18.19-2.21-12.25-3.36-18.37-1.37-12.31-2.8-18.62c-2.16-.05-4.06-.13-6-.13H8.59c-1.91,0-3.82.14-5.74.21a8.16,8.16,0,0,1-.68-5.1c2.09,1.14,4.37.75,6.58.75q52.23,0,104.45,0a34.88,34.88,0,0,0,3.83-.07,14.58,14.58,0,0,0,2.61-.75c0-1,.06-1.84,0-2.62a369.27,369.27,0,0,1,0-66.5,17.35,17.35,0,0,0-.22-2.8,18.78,18.78,0,0,0-5.9-.42H8.07c-1.91,0-3.82.14-5.73.22a7.57,7.57,0,0,1,.59-5.27c.64,0,1.28.08,1.92.08H116.13c1.25,0,2.5-.18,4-.3.26-1.55.56-2.94.72-4.33a315.3,315.3,0,0,1,5.41-32.63c2.28-10,4.92-19.85,7.4-29.76.38-1.52,1.23-3,.39-5-1.78,0-3.68-.1-5.58-.1H20.57c-2.08,0-4.15-.07-6.23-.1a11.79,11.79,0,0,1,1.23-5.92c1.12,0,2.24.07,3.35.07H132.55c1.42,0,2.83-.13,4.49-.21,1.78-4.9,3.45-9.71,5.26-14.47,1.88-4.92,3.81-9.83,5.86-14.69,2-4.71,4.08-9.37,6.25-14s4.68-9.45,7-14.19c2.22-4.53,5.14-8.71,7-13.66-2-.75-3.77-.46-5.47-.46q-58.72,0-117.46,0c-2.07,0-4.15-.1-6.22-.16.23-2.17.8-4.18,2.67-5.58,2.08-.06,4.15-.18,6.23-.18H172.42c48.06-77.35,114-132.84,199.7-163.37s172-30.5,257.61,0,151.65,86,199.68,163.37H953.66c2.08,0,4.15.11,6.23.16,1.94,1.38,2.44,3.46,2.72,5.64-2.08,0-4.15.12-6.23.12H839.85c-1.44,0-2.88,0-4.31,0-.78,0-1.63-.07-2,1.19,2.9,5.47,6,11.06,8.85,16.76s5.63,11.48,8.23,17.32,5.15,12,7.54,18.14c2.33,5.93,4.44,11.94,6.73,18.15,2.07,0,4,.12,5.86.12H980.54c1.92,0,3.84-.08,5.75-.12a12,12,0,0,1,1.28,6c-2.08,0-4.16.06-6.23.06H883.12c-4.31,0-8.62,0-12.93,0a19,19,0,0,0-2.65.39c-.51,2.09.35,3.7.83,5.35a385.38,385.38,0,0,1,12.72,62.82,28.48,28.48,0,0,0,.82,3.4c2.08,0,4,.1,5.88.1H993.2c1.91,0,3.82-.14,5.73-.22.26,1.67-.17,3.48,1.07,4.94v10.56c-.44-3.27-.88-6.54-1.3-9.68-2.11-.92-4.05-.6-5.94-.6q-52.25,0-104.48,0a28.74,28.74,0,0,0-3.35.05,17.16,17.16,0,0,0-2.61.73c0,1.37,0,2.48,0,3.58.45,9.25,1.09,18.49,1.33,27.75a328.78,328.78,0,0,1-1.39,36.86c-.1,1.22-.55,2.54.79,4,1.26.06,2.83.2,4.4.2q53.43,0,106.88,0c1.58,0,3.17-.23,4.75-.35l-.13,4.81c-1.59-.11-3.17-.31-4.76-.31q-53.69,0-107.35,0c-1.58,0-3.16.09-4.43.13-1.41,1.47-1.19,3-1.41,4.38-1.45,9.3-2.73,18.64-4.39,27.91a351.07,351.07,0,0,1-9.23,37.66c-.34,1.16-1.17,2.34,0,4h98C972.72,615.08,980.07,615,987.42,615Zm-525-151.47-30,.1c-2.55,0-5.11-.06-7.66-.06H235.6c-2.55,0-5.11.05-7.66.08-1.6,0-3.2.09-4.79.09H133.9c-1.44,0-2.88,0-4.32,0a19.45,19.45,0,0,0-2.45.46,168.86,168.86,0,0,0-1.64,24c-.11,8.15-.12,16.3,0,24.45.14,7.95.3,15.9,1.8,24,1.85.08,3.43.2,5,.2q45.34,0,90.69,0c1.74,0,3.48-.32,5.22-.49,2.24.07,4.48.18,6.71.18H425.35c2.23,0,4.47-.11,6.71-.17,1.42.13,2.85.36,4.28.37q11.27.06,22.53,0c1.27,0,2.54-.22,3.81-.33,1.91,0,3.82.13,5.73.13h95.1c1.91,0,3.82-.1,5.73-.16a260.91,260.91,0,0,0,31.39,0c2.23.06,4.47.16,6.7.16h159.6c2.24,0,4.47-.11,6.71-.16,1.9.16,3.8.47,5.7.47q44.86,0,89.72,0a24.91,24.91,0,0,0,2.87-.05,26.56,26.56,0,0,0,2.81-.61,25.21,25.21,0,0,0,.42-2.51c.4-6.39.92-12.76,1.14-19.15a369.89,369.89,0,0,0-1-46.49c-.12-1.39.2-2.93-1.49-4.27-1.55,0-3.45-.09-5.35-.09H779.18c-1.76,0-3.51-.07-5.27-.11-1.92,0-3.83-.06-5.75-.06H550.82Zm9.83-5.67c2,1.35,4.33.89,6.52.9q40.25,0,80.47,0c3.35,0,6.71-.06,10.06-.1h31.26c1.91,0,3.83.09,5.74.09H766.66c2.07,0,4.14-.08,6.22-.13,1.75,0,3.51.15,5.26.15,7.2,0,14.39,0,21.58,0q34.29,0,68.57,0c1.87,0,3.83.42,5.59-.58.57-11.44-9.8-60.45-15.25-71.49H685.49l-86.71,0c-13,0-26,0-39-.05a49.7,49.7,0,0,0-11.8.9c-2-1.31-4.34-.87-6.55-.87H249.74q-53,.06-105.93.14c-.28,0-.57.24-.86.37-5.31,11-15.31,58.39-15,71,1.75,1,3.7.58,5.58.58q45,0,90.11,0c1.76,0,3.51-.11,5.27-.17,2.55.05,5.11.15,7.66.15H425c2.4,0,4.79-.07,7.19-.11q13.88.06,27.74.12C464.06,458.81,468.21,459,472.26,457.88ZM250.4,615.15h95q22.78,0,45.57,0l43,0h19.59c1.74,0,3.53.17,5-1a20.39,20.39,0,0,0,3.59,1.05,40.41,40.41,0,0,0,4.8.07H751.49l55.08-.06c15.65,0,31.3,0,46.95,0,1.71,0,3.51.4,5.38-.74a357.09,357.09,0,0,0,14-61.32c.53-3.73,1.5-7.47,1.07-11.34-1.82-.91-3.6-.6-5.32-.6q-45.27,0-90.53,0c-1.75,0-3.5.18-5.25.28-2.4-.06-4.79-.17-7.18-.18H607.29c-2.23,0-4.46.08-6.7.12-1.9-.07-3.8-.21-5.7-.21-14,0-27.92,0-41.88,0a31.08,31.08,0,0,0-8.91,1.06c-1.84-1.32-4-.92-6-.93q-23.62,0-47.26,0c-9.39,0-18.78.06-28.16.09-4.94-.06-9.88-.18-14.82-.17-5.25,0-10.51.13-15.77.21-2.07,0-4.15-.13-6.22-.13H235.61c-2.23,0-4.47.13-6.7.2-2.07-.11-4.14-.31-6.21-.31q-42,0-84,0c-2.56,0-5.12,0-7.68,0a25.34,25.34,0,0,0-3.16.48c0,14.53,9.76,60.52,15.7,73.39,1.6,0,3.35.12,5.09.12h58.54Q228.82,615.11,250.4,615.15ZM592.94,381c.48,0,1-.06,1.44-.06H740.49c1.59,0,3.19,0,4.78-.13a2.84,2.84,0,0,0,2.51-1.93c1,1.11,2,2.06,3.62,1.92,1.27-.11,2.56,0,3.83,0h93.43c1.92,0,3.84,0,5.75,0a13.27,13.27,0,0,0,2.16-.41c-2.24-12.93-24.26-61-32.69-71.25H768.15L699.64,309H302.23l-71.89,0c-16,0-32,0-47.92,0-1.72,0-3.52-.39-5.4.68-.79,1.31-1.73,2.79-2.57,4.32-2.9,5.33-5.86,10.64-8.63,16a357.1,357.1,0,0,0-19.56,45.78c-.5,1.41-1.62,2.83-.59,4.76,1.65,0,3.39.11,5.13.11h96.33c1,0,1.93-.08,2.88,0a4.33,4.33,0,0,0,4.06-2,3.1,3.1,0,0,0,3,2c1.92,0,3.83.08,5.75.08q150.73,0,301.46,0c3.66,0,7.31-.41,11-.63,1.7.18,3.39.46,5.09.51C584.52,380.91,588.73,380.92,592.94,381ZM252.36,618.07H147.85c-.32,0-.64,0-.95,0s-.64,0-1,.1a2,2,0,0,0-.45.16l-.49.28c-.57,2.14.64,4,1.3,5.89A367.67,367.67,0,0,0,178.45,693c2,0,3.71.12,5.44.12q57.53,0,115.05,0c1.76,0,3.51-.13,5.27-.21,2.87,0,5.73.11,8.6.11H688.09c3.19,0,6.38-.07,9.56-.1,1.44.07,2.88.2,4.31.2H819c1.42,0,2.84-.12,4.38-.19.9-1.44,1.8-2.75,2.57-4.13,3.38-6.16,6.84-12.29,10.06-18.53A356.2,356.2,0,0,0,855.73,624c.61-1.75,1.77-3.46.95-5.82-1.5,0-3.08-.11-4.65-.11H754.21a7.16,7.16,0,0,0-5.39,1.24,4.93,4.93,0,0,0-3.52-1.24L741,618H665.25l-210.41,0-60.5,0c-.47,0-.95,0-1.43,0ZM691.93,302.33c1.44.91,3.06.8,4.65.81h11q53.51,0,107,0a15.61,15.61,0,0,0,5.37-.38c-.26-2.18-1.6-3.62-2.6-5.17a370.34,370.34,0,0,0-73-83.51q-96.31-81.28-222.19-89a359.1,359.1,0,0,0-60.36,1.43,367.09,367.09,0,0,0-53.31,9.45c-80.84,21-147.49,64.05-200.3,128.66a346.37,346.37,0,0,0-24.34,33.88c-.82,1.29-2,2.48-2,4.5,1.78.07,3.34.18,4.89.18q23.52,0,47,0h70c2.05,0,4.16.29,6.07-.84a19.5,19.5,0,0,0,3.17.89,41.47,41.47,0,0,0,4.32.06h367a41.47,41.47,0,0,0,4.32-.06A20.2,20.2,0,0,0,691.93,302.33ZM307.92,696c-2.09-1.1-4.36-.83-6.58-.83H186.18c-1.12,0-2.25,0-3.36,0a11.13,11.13,0,0,0-2.13.56,5.24,5.24,0,0,0,.23,1.2c.71,1.25,1.44,2.5,2.21,3.71Q235.51,782.87,320.86,830c48,26.34,99.38,41.16,153.92,45a371.77,371.77,0,0,0,67.54-1.42,361.47,361.47,0,0,0,51.86-9.41c81-21.23,147.62-64.6,200.3-129.54a349.36,349.36,0,0,0,25-35.19c.71-1.15,1.77-2.22,1.62-3.92a16.5,16.5,0,0,0-5.36-.39H699.6c-1.91,0-3.85-.14-5.63.81a17.22,17.22,0,0,0-3.14-1,34.38,34.38,0,0,0-4.31-.08H315.36a34.38,34.38,0,0,0-4.31.08A17.24,17.24,0,0,0,307.92,696Z"/><path class="cls-4" d="M2.34,464c1.91-.08,3.82-.22,5.73-.22H113.48a18.78,18.78,0,0,1,5.9.42,17.35,17.35,0,0,1,.22,2.8,369.27,369.27,0,0,0,0,66.5c.07.78,0,1.58,0,2.62a14.58,14.58,0,0,1-2.61.75,34.88,34.88,0,0,1-3.83.07q-52.23,0-104.45,0c-2.21,0-4.49.39-6.58-.75-.18-4.23-.28-8.46-.56-12.68-.14-2.14,0-4.42-1.61-6.22V489.44a4.05,4.05,0,0,0,1.81-3.66c0-2.68-.05-5.36-.08-8Z"/><path class="cls-4" d="M999.09,536.57c-1.58.12-3.17.35-4.75.35q-53.45,0-106.88,0c-1.57,0-3.14-.14-4.4-.2-1.34-1.42-.89-2.74-.79-4a328.78,328.78,0,0,0,1.39-36.86c-.24-9.26-.88-18.5-1.33-27.75-.05-1.1,0-2.21,0-3.58a17.16,17.16,0,0,1,2.61-.73,28.74,28.74,0,0,1,3.35-.05q52.25,0,104.48,0c1.89,0,3.83-.32,5.94.6.42,3.14.86,6.41,1.3,9.68v52.78c-.4,3.2-1.28,6.36-.89,9.63Z"/><path class="cls-5" d="M1.73,477.75c0,2.67.1,5.35.08,8A4.05,4.05,0,0,1,0,489.44V477.93C.66,478.62,1.18,478,1.73,477.75Z"/><path class="cls-3" d="M533.59,999.1a4.51,4.51,0,0,0,0,.9H515.36c4.51-.32,9-.68,13.55-1C530.46,999,532,999.08,533.59,999.1Z"/><path class="cls-3" d="M528.79,0a8.7,8.7,0,0,0,0,.89c-4.37-.17-8.75-.34-13.12-.54-1.4-.06-2.79-.23-4.19-.35Z"/><path class="cls-5" d="M474.25,1.06c-.05-.35-.11-.71-.16-1.06H490.4a9.81,9.81,0,0,1-2.62.86C483.27,1,478.76,1,474.25,1.06Z"/><path class="cls-5" d="M476.19,999.1c3,0,6.07-.07,9.1,0a14.92,14.92,0,0,1,3.19.85H476A1,1,0,0,0,476.19,999.1Z"/><path class="cls-3" d="M999.11,536.5c-.39-3.27.49-6.43.89-9.63v9.6l-.44,0Z"/><path class="cls-3" d="M476.19,999.1a1,1,0,0,1-.18.9h-7.68a4.41,4.41,0,0,0,0-.89Z"/><path class="cls-5" d="M464.28,1.8a14.69,14.69,0,0,1,7-.6C469,2.33,466.66,2.17,464.28,1.8Z"/><path class="cls-6" d="M39.3,308.91c2.07.06,4.15.16,6.22.16q58.74,0,117.46,0c1.7,0,3.46-.29,5.47.46-1.91,4.95-4.83,9.13-7,13.66-2.31,4.74-4.74,9.43-7,14.19s-4.27,9.29-6.25,14c-2,4.86-4,9.77-5.86,14.69-1.81,4.76-3.48,9.57-5.26,14.47-1.66.08-3.07.21-4.49.21H18.92c-1.11,0-2.23,0-3.35-.07,2.06-10,5-19.69,8-29.41q6-19.37,13.64-38.14C37.82,311.71,38.6,310.33,39.3,308.91Z"/><path class="cls-1" d="M14.34,386.63c2.08,0,4.15.1,6.23.1H128.5c1.9,0,3.8.07,5.58.1.84,2,0,3.43-.39,5-2.48,9.91-5.12,19.8-7.4,29.76a315.3,315.3,0,0,0-5.41,32.63c-.16,1.39-.46,2.78-.72,4.33-1.53.12-2.78.3-4,.3H4.85c-.64,0-1.28-.06-1.92-.08.38-4.77.62-9.55,1.16-14.29a510.83,510.83,0,0,1,8.54-51.88C13.07,390.55,13.76,388.6,14.34,386.63Z"/><path class="cls-1" d="M15.38,618.06q60.42,0,120.91,0c2.4,5.22,3.75,10.49,5.75,15.5s3.92,10.14,6,15.15,4.2,9.68,6.46,14.44q3.48,7.38,7.26,14.6c2.49,4.8,5.14,9.53,7.62,14.12-.4,1.29-1.28,1.17-2,1.2-1.59,0-3.19,0-4.79,0H46.49c-2.08,0-4.15.16-6.22.24a27.86,27.86,0,0,1-1.86-3.26A497.93,497.93,0,0,1,15.7,620.88,23.85,23.85,0,0,1,15.38,618.06Z"/><path class="cls-7" d="M2.85,541.27c1.92-.07,3.83-.21,5.74-.21H114c1.89,0,3.79.08,6,.13,1.43,6.31,1.66,12.54,2.8,18.62s2.09,12.28,3.36,18.37,2.72,12.16,4.25,18.19,3.25,12,5,18.28c-1.24.18-2.12.34-3,.42-.63.06-1.28,0-1.91,0l-116,0c-1.63-7.49-3.38-15-4.87-22.48-3-15.07-4.89-30.29-6.44-45.57C3,545.11,3,543.18,2.85,541.27Z"/><path class="cls-6" d="M986.29,380.66c-1.91,0-3.83.12-5.75.12H870.73c-1.9,0-3.79-.08-5.86-.12-2.29-6.21-4.4-12.22-6.73-18.15-2.39-6.1-4.88-12.16-7.54-18.14s-5.36-11.61-8.23-17.32-6-11.29-8.85-16.76c.39-1.26,1.24-1.17,2-1.19,1.43,0,2.87,0,4.31,0H956.38c2.08,0,4.15-.08,6.23-.12.45.84,1,1.64,1.33,2.51a482.83,482.83,0,0,1,21.76,66.39C985.93,378.78,986.1,379.73,986.29,380.66Z"/><path class="cls-1" d="M998.93,458.59c-1.91.08-3.82.22-5.73.22H887.79c-1.9,0-3.8-.06-5.88-.1a28.48,28.48,0,0,1-.82-3.4,385.38,385.38,0,0,0-12.72-62.82c-.48-1.65-1.34-3.26-.83-5.35a19,19,0,0,1,2.65-.39c4.31,0,8.62,0,12.93,0h98.22c2.07,0,4.15,0,6.23-.06,1.26,5.4,2.64,10.78,3.75,16.21,2.84,13.87,4.87,27.87,6.48,41.93C998.32,449.39,998.56,454,998.93,458.59Z"/><path class="cls-1" d="M961.66,693.33c-2.08-.07-4.15-.21-6.22-.21H833c-.81-1.77.28-2.72.82-3.78,4.67-9.09,9.55-18.07,14-27.26A339.52,339.52,0,0,0,863.56,623c.52-1.49,1.08-3,1.54-4.27,1.91-1,3.71-.66,5.43-.66q26.36,0,52.71,0h63.25c-.35,1.88-.59,3.78-1.06,5.62a490,490,0,0,1-21.62,65.44C963.21,690.57,962.38,691.93,961.66,693.33Z"/><path class="cls-7" d="M987.42,615c-7.35,0-14.7.06-22,.06h-98c-1.21-1.61-.38-2.79,0-4a351.07,351.07,0,0,0,9.23-37.66c1.66-9.27,2.94-18.61,4.39-27.91.22-1.4,0-2.91,1.41-4.38,1.27,0,2.85-.13,4.43-.13q53.67,0,107.35,0c1.59,0,3.17.2,4.76.31-.68,7.31-1.18,14.63-2.1,21.91a472.8,472.8,0,0,1-8.28,47.09C988.22,611.94,987.81,613.48,987.42,615Z"/><path class="cls-1" d="M694,695.94c1.78-1,3.72-.8,5.63-.81H815.72a16.5,16.5,0,0,1,5.36.39c.15,1.7-.91,2.77-1.62,3.92a349.36,349.36,0,0,1-25,35.19C741.8,799.58,675.13,843,594.18,864.18a361.47,361.47,0,0,1-51.86,9.41A371.77,371.77,0,0,1,474.78,875c-54.54-3.89-106-18.71-153.92-45Q235.42,783,183.13,700.65c-.77-1.21-1.5-2.46-2.21-3.71a5.24,5.24,0,0,1-.23-1.2,11.13,11.13,0,0,1,2.13-.56c1.11-.1,2.24,0,3.36,0H301.34c2.22,0,4.49-.27,6.58.83,1.44,1.49,2.81,3,4.33,4.45q75.81,70.27,179.11,74.74A264.37,264.37,0,0,0,558,769.37a272.37,272.37,0,0,0,114.59-54.22A187.76,187.76,0,0,0,694,695.94Z"/><path class="cls-1" d="M310,302.29c-1.91,1.13-4,.84-6.07.84h-70q-23.52,0-47,0c-1.55,0-3.11-.11-4.89-.18,0-2,1.17-3.21,2-4.5a346.37,346.37,0,0,1,24.34-33.88c52.81-64.61,119.46-107.7,200.3-128.66a367.09,367.09,0,0,1,53.31-9.45A359.1,359.1,0,0,1,522.22,125q125.74,7.8,222.19,89a370.34,370.34,0,0,1,73,83.51c1,1.55,2.34,3,2.6,5.17a15.61,15.61,0,0,1-5.37.38q-53.5,0-107,0h-11c-1.59,0-3.21.1-4.65-.81-3.85-3.59-7.56-7.34-11.58-10.74-48.58-41.23-104.65-63.5-168.38-66.3a268.13,268.13,0,0,0-66.71,5.34,272.55,272.55,0,0,0-123,60.29C318,294.53,314.05,298.49,310,302.29Z"/><path class="cls-2" d="M697.65,692.9c-3.18,0-6.37.1-9.56.1H312.81c-2.87,0-5.73-.07-8.6-.11-.83-1-1.61-2-2.48-2.88a277.38,277.38,0,0,1-21.31-25.24,261.76,261.76,0,0,1-28.06-46.7H392.91c.48,0,1,0,1.43,0,.88,2.22,2.87,3.38,4.67,4.64,11.12,7.74,23.32,9.63,36.39,6.47a41.52,41.52,0,0,0,15.17-6.73c1.64-1.22,3.45-2.31,4.27-4.36l210.41,0H741l4.31,0a4.93,4.93,0,0,1,3.52,1.24c-.58,1.31-1.12,2.65-1.76,3.93a275.47,275.47,0,0,1-46.3,66.08C699.67,690.46,698.69,691.7,697.65,692.9Z"/><path class="cls-8" d="M302.23,309H699.64c1,1.38,2,2.85,3.14,4.12a266.72,266.72,0,0,1,33.87,45.11c4,6.71,7.44,13.73,11.13,20.61a2.84,2.84,0,0,1-2.51,1.93c-1.59.09-3.19.13-4.78.13H594.38c-.48,0-1,0-1.44.06a3.42,3.42,0,0,0-2.51-1.91,16.35,16.35,0,0,0-7.91-.55c-2.45.49-4.87,1.17-7.3,1.76-3.66.22-7.31.63-11,.63q-150.74,0-301.46,0c-1.92,0-3.83,0-5.75-.08a3.1,3.1,0,0,1-3-2c.89-1.87,1.72-3.77,2.68-5.61a276.66,276.66,0,0,1,42.31-60.07C300.22,311.87,301.18,310.41,302.23,309Z"/><path class="cls-9" d="M694,695.94a187.76,187.76,0,0,1-21.34,19.21A272.37,272.37,0,0,1,558,769.37a264.37,264.37,0,0,1-66.68,5.79q-103.26-4.45-179.11-74.74c-1.52-1.41-2.89-3-4.33-4.45a17.24,17.24,0,0,1,3.13-1,34.38,34.38,0,0,1,4.31-.08H686.52a34.38,34.38,0,0,1,4.31.08A17.22,17.22,0,0,1,694,695.94Z"/><path class="cls-9" d="M310,302.29c4.09-3.8,8.05-7.76,12.3-11.37a272.55,272.55,0,0,1,123-60.29A268.13,268.13,0,0,1,512,225.29c63.73,2.8,119.8,25.07,168.38,66.3,4,3.4,7.73,7.15,11.58,10.74a20.2,20.2,0,0,1-3.18.85,41.47,41.47,0,0,1-4.32.06h-367a41.47,41.47,0,0,1-4.32-.06A19.5,19.5,0,0,1,310,302.29Z"/><path class="cls-8" d="M600.59,541.29c2.24,0,4.47-.12,6.7-.12H765.72c2.39,0,4.78.12,7.18.18-.2,1.59-.34,3.18-.62,4.75a276.4,276.4,0,0,1-19.49,65,39.8,39.8,0,0,0-1.3,4H467a40.41,40.41,0,0,1-4.8-.07,20.39,20.39,0,0,1-3.59-1.05,36.8,36.8,0,0,0,4.14-18.37c-.16-18.13,0-36.27,0-54.4,9.38,0,18.77-.08,28.16-.09q23.62,0,47.26,0c2,0,4.17-.39,6,.93-1.28.65-2.59,1.25-3.84,1.95a31.79,31.79,0,0,0-14,15.23c-3.9,9-2.9,17.44,3.13,25.22A35.51,35.51,0,0,0,540.68,594a44,44,0,0,0,30.6,4.5A45.8,45.8,0,0,0,586,593.05c6.73-4,11.42-9.74,13.35-17.39a42.37,42.37,0,0,0,1.16-9.46C600.7,557.9,600.59,549.59,600.59,541.29Z"/><path class="cls-2" d="M249.74,386.74H541.39c2.21,0,4.51-.44,6.55.87-1.22.37-2.44.76-3.67,1.11q-47.11,13.08-94.22,26.18a50.34,50.34,0,0,0-8.09,2.91A15.89,15.89,0,0,0,432.8,430a46.22,46.22,0,0,0-.7,7.61c-.06,7,0,14.07.08,21.11-2.4,0-4.79.11-7.19.11H236.61c-2.55,0-5.11-.1-7.66-.15.22-1.58.38-3.17.66-4.74a277.46,277.46,0,0,1,18.55-62.68C248.79,389.77,249.22,388.23,249.74,386.74Z"/><path class="cls-2" d="M432.06,536.44c-2.24.06-4.48.17-6.71.17H234.93c-2.23,0-4.47-.11-6.71-.18-.39-3.31-.84-6.62-1.15-9.94a240.07,240.07,0,0,1-1-37.63c.53-8.4,1.26-16.8,1.9-25.19,2.55,0,5.11-.08,7.66-.08H424.77c2.55,0,5.11,0,7.66.06-.08,2.07-.22,4.14-.22,6.21Q432.11,503.16,432.06,536.44Z"/><path class="cls-2" d="M600.41,463.6H768.16c1.92,0,3.83,0,5.75.06a13.5,13.5,0,0,0-.07,1.42c.66,8.24,1.49,16.48,2,24.73a249.31,249.31,0,0,1-2.17,46.65c-2.24,0-4.47.16-6.71.16H607.33c-2.23,0-4.47-.1-6.7-.16q0-33.32,0-66.63C600.6,467.75,600.48,465.67,600.41,463.6Z"/><path class="cls-2" d="M228.91,541.38c2.23-.07,4.47-.2,6.7-.2H425.86c2.07,0,4.15.09,6.22.13,0,3,0,6.05-.05,9.08,0,2.86.06,5.73,0,8.6s.43,6-.53,9.16c-1.89.32-3.77.62-5.64,1-5.48,1-11.07,1.56-16.41,3a31.33,31.33,0,0,0-21.25,18.45,23.14,23.14,0,0,0,.5,20.32c.71,1.42,1.51,2.8,2.27,4.2q-22.79,0-45.57,0h-95c-.69-1.94-1.29-3.91-2.11-5.8A268.07,268.07,0,0,1,228.91,541.38Z"/><path class="cls-2" d="M598.78,386.76l86.71,0h66.58c1.51,3.86,3,7.72,4.52,11.56a264.82,264.82,0,0,1,16.29,60.37c-2.08,0-4.15.13-6.22.13H606.31c-1.91,0-3.83-.06-5.74-.09,0-19.74,0-39.49.06-59.24A41.64,41.64,0,0,0,598.78,386.76Z"/><path class="cls-10" d="M598.78,386.76a41.64,41.64,0,0,1,1.85,12.7c-.07,19.75,0,39.5-.06,59.24H569.31c-.18-8.74.18-17.49-.22-26.46a20.43,20.43,0,0,0-5.39,1q-22.87,6.11-45.75,12.24t-45.69,12.4c-4.05,1.16-8.2.93-12.34.92q-13.87,0-27.74-.12c0-7-.14-14.07-.08-21.11a46.22,46.22,0,0,1,.7-7.61A15.89,15.89,0,0,1,442,417.81a50.34,50.34,0,0,1,8.09-2.91q47.1-13.14,94.22-26.18c1.23-.35,2.45-.74,3.67-1.11a49.7,49.7,0,0,1,11.8-.9C572.75,386.76,585.76,386.75,598.78,386.76Z"/><path class="cls-7" d="M252.36,618.07a261.76,261.76,0,0,0,28.06,46.7A277.38,277.38,0,0,0,301.73,690c.87.92,1.65,1.92,2.48,2.88-1.76.08-3.51.21-5.27.21q-57.53,0-115,0c-1.73,0-3.47-.07-5.44-.12a367.67,367.67,0,0,1-32.15-68.47c-.66-1.89-1.87-3.75-1.3-5.89l.49-.28a2,2,0,0,1,.45-.16c.32-.05.64-.08,1-.1s.63,0,.95,0H252.36Z"/><path class="cls-7" d="M697.65,692.9c1-1.2,2-2.44,3.11-3.59a275.47,275.47,0,0,0,46.3-66.08c.64-1.28,1.18-2.62,1.76-3.93a7.16,7.16,0,0,1,5.39-1.24H852c1.57,0,3.15.07,4.65.11.82,2.36-.34,4.07-.95,5.82A356.2,356.2,0,0,1,836,670.25c-3.22,6.24-6.68,12.37-10.06,18.53-.77,1.38-1.67,2.69-2.57,4.13-1.54.07-3,.19-4.38.19H702C700.53,693.1,699.09,693,697.65,692.9Z"/><path class="cls-4" d="M302.23,309c-1.05,1.37-2,2.83-3.17,4.1a276.66,276.66,0,0,0-42.31,60.07c-1,1.84-1.79,3.74-2.68,5.61a4.33,4.33,0,0,1-4.06,2c-.95-.09-1.92,0-2.88,0H150.8c-1.74,0-3.48-.07-5.13-.11-1-1.93.09-3.35.59-4.76a357.1,357.1,0,0,1,19.56-45.78c2.77-5.39,5.73-10.7,8.63-16,.84-1.53,1.78-3,2.57-4.32,1.88-1.07,3.68-.68,5.4-.68,16,0,32,0,47.92,0Z"/><path class="cls-4" d="M747.78,378.87c-3.69-6.88-7.15-13.9-11.13-20.61a266.72,266.72,0,0,0-33.87-45.11c-1.16-1.27-2.1-2.74-3.14-4.12l68.51.05h55.73c8.43,10.29,30.45,58.32,32.69,71.25a13.27,13.27,0,0,1-2.16.41c-1.91.07-3.83,0-5.75,0H755.23c-1.27,0-2.56-.1-3.83,0C749.74,380.93,748.74,380,747.78,378.87Z"/><path class="cls-2" d="M569.24,536.45c-1.91.06-3.82.16-5.73.16h-95.1c-1.91,0-3.82-.09-5.73-.13q0-33.6,0-67.18c0-1.92-.15-3.83-.22-5.75l88.39,0h18.63c-.06,1.91-.19,3.82-.19,5.74Q569.23,502.9,569.24,536.45Z"/><path class="cls-7" d="M751.49,615.15a39.8,39.8,0,0,1,1.3-4,276.4,276.4,0,0,0,19.49-65c.28-1.57.42-3.16.62-4.75,1.75-.1,3.5-.28,5.25-.28q45.26,0,90.53,0c1.72,0,3.5-.31,5.32.6.43,3.87-.54,7.61-1.07,11.34a357.09,357.09,0,0,1-14,61.32c-1.87,1.14-3.67.73-5.38.74-15.65,0-31.3,0-46.95,0Z"/><path class="cls-7" d="M228.91,541.38a268.07,268.07,0,0,0,19.38,68c.82,1.89,1.42,3.86,2.11,5.8q-21.59,0-43.18-.06H148.68c-1.74,0-3.49-.08-5.09-.12-5.94-12.87-15.69-58.86-15.7-73.39a25.34,25.34,0,0,1,3.16-.48c2.56-.08,5.12,0,7.68,0q42,0,84,0C224.77,541.07,226.84,541.27,228.91,541.38Z"/><path class="cls-7" d="M249.74,386.74c-.52,1.49-1,3-1.58,4.48a277.46,277.46,0,0,0-18.55,62.68c-.28,1.57-.44,3.16-.66,4.74-1.76.06-3.51.17-5.27.17q-45.06,0-90.11,0c-1.88,0-3.83.41-5.58-.58-.35-12.58,9.65-59.94,15-71,.29-.12.58-.36.86-.36Q196.78,386.79,249.74,386.74Z"/><path class="cls-7" d="M772.88,458.66a264.82,264.82,0,0,0-16.29-60.37c-1.53-3.84-3-7.7-4.52-11.56H858.63c5.45,11,15.82,60,15.25,71.49-1.76,1-3.72.58-5.59.58q-34.29,0-68.57,0c-7.19,0-14.38,0-21.58,0C776.39,458.81,774.63,458.71,772.88,458.66Z"/><path class="cls-11" d="M227.94,463.67c-.64,8.39-1.37,16.79-1.9,25.19a240.07,240.07,0,0,0,1,37.63c.31,3.32.76,6.63,1.15,9.94-1.74.17-3.48.49-5.22.49q-45.34,0-90.69,0c-1.57,0-3.15-.12-5-.2-1.5-8.13-1.66-16.08-1.8-24-.14-8.15-.13-16.3,0-24.45a168.86,168.86,0,0,1,1.64-24,19.45,19.45,0,0,1,2.45-.46c1.44-.07,2.88,0,4.32,0h89.25C224.74,463.76,226.34,463.7,227.94,463.67Z"/><path class="cls-4" d="M773.64,536.45a249.31,249.31,0,0,0,2.17-46.65c-.48-8.25-1.31-16.49-2-24.73a13.5,13.5,0,0,1,.07-1.42c1.76,0,3.51.11,5.27.11h89.24c1.9,0,3.8.06,5.35.09,1.69,1.34,1.37,2.88,1.49,4.27a369.89,369.89,0,0,1,1,46.49c-.22,6.39-.74,12.76-1.14,19.15a25.21,25.21,0,0,1-.42,2.51,26.56,26.56,0,0,1-2.81.61,24.91,24.91,0,0,1-2.87.05q-44.87,0-89.72,0C777.44,536.92,775.54,536.61,773.64,536.45Z"/><path class="cls-10" d="M391,615.1c-.76-1.4-1.56-2.78-2.27-4.2a23.14,23.14,0,0,1-.5-20.32,31.33,31.33,0,0,1,21.25-18.45c5.34-1.48,10.93-2.06,16.41-3,1.87-.33,3.75-.63,5.64-1,1-3.14.44-6.17.53-9.16s0-5.74,0-8.6c0-3,0-6,.05-9.08,5.26-.08,10.52-.2,15.77-.21,4.94,0,9.88.11,14.82.17,0,18.13-.12,36.27,0,54.4A36.8,36.8,0,0,1,458.57,614c-1.5,1.21-3.29,1-5,1H434Z"/><path class="cls-10" d="M600.59,541.29c0,8.3.11,16.61,0,24.91a42.37,42.37,0,0,1-1.16,9.46c-1.93,7.65-6.62,13.34-13.35,17.39a45.8,45.8,0,0,1-14.76,5.42,44,44,0,0,1-30.6-4.5,35.51,35.51,0,0,1-11.32-9.46c-6-7.78-7-16.24-3.13-25.22a31.79,31.79,0,0,1,14-15.23c1.25-.7,2.56-1.3,3.84-1.95a31.08,31.08,0,0,1,8.91-1.06c14,.06,27.92,0,41.88,0C596.79,541.08,598.69,541.22,600.59,541.29Z"/><path class="cls-5" d="M569.24,536.45q0-33.56,0-67.11c0-1.92.13-3.83.19-5.74h31c.07,2.07.19,4.15.19,6.22q0,33.32,0,66.63A260.91,260.91,0,0,1,569.24,536.45Z"/><path class="cls-12" d="M462.43,463.55c.07,1.92.21,3.83.22,5.75q0,33.58,0,67.18c-1.27.11-2.54.32-3.81.33q-11.26,0-22.53,0c-1.43,0-2.86-.24-4.28-.37q.06-33.29.15-66.58c0-2.07.14-4.14.22-6.21Z"/><path class="cls-13" d="M472.26,457.88q22.85-6.19,45.69-12.4t45.75-12.24a20.43,20.43,0,0,1,5.39-1c.4,9,0,17.72.22,26.46-3.35,0-6.71.09-10.06.1q-40.23,0-80.47,0C476.59,458.77,474.29,459.23,472.26,457.88Z"/><path class="cls-5" d="M454.84,618.05c-.82,2.05-2.63,3.14-4.27,4.36a41.52,41.52,0,0,1-15.17,6.73c-13.07,3.16-25.27,1.27-36.39-6.47-1.8-1.26-3.79-2.42-4.67-4.64Z"/><path class="cls-5" d="M575.22,380.28c2.43-.59,4.85-1.27,7.3-1.76a16.35,16.35,0,0,1,7.91.55,3.42,3.42,0,0,1,2.51,1.91c-4.21-.06-8.42-.07-12.63-.19C578.61,380.74,576.92,380.46,575.22,380.28Z"/></svg>