<?xml version="1.0" encoding="utf-8"?>
<!-- Generator: Adobe Illustrator 24.0.1, SVG Export Plug-In . SVG Version: 6.00 Build 0)  -->
<svg version="1.1" id="Layer_1" xmlns="http://www.w3.org/2000/svg" xmlns:xlink="http://www.w3.org/1999/xlink" x="0px" y="0px"
	 viewBox="0 0 1000 1000" style="enable-background:new 0 0 1000 1000;" xml:space="preserve">
<style type="text/css">
	.st0{opacity:0.15;}
	.st1{fill:#2B65B0;}
	.st2{fill:#FFFFFF;}
	.st3{fill:#CAD2EA;}
	.st4{fill:#2C66B1;}
	.st5{fill:#6A7BBC;}
	.st6{fill:#2B66B1;}
	.st7{fill:#2B66B0;}
	.st8{fill:#FEFFFF;}
	.st9{fill:#FEFEFF;}
	.st10{fill:#6779BB;}
	.st11{fill:#2C67B1;}
	.st12{fill:#687ABB;}
	.st13{fill:#FDFDFE;}
</style>
<title>ShareTee</title>
<g class="st0">
	<path class="st1" d="M515.4,1000h-26.9c-1-0.4-2.1-0.7-3.2-0.8c-3-0.1-6.1,0-9.1,0h-7.9c-2.9-0.3-5.7-0.6-8.6-0.8
		c-17.9-1.3-35.6-3.7-53.2-7.2c-41-7.8-80.9-20.8-118.6-38.7C196.9,909,125.1,844.2,72.6,758c-12.2-19.9-22.8-40.7-31.8-62.3
		c2.1-0.2,4.1-0.5,6.2-0.5c39.5,0,79,0,118.5,0c6.9,0,5.7-0.5,9.1,5c22.4,36.7,50.9,69.2,84.2,96.3c67,54.3,143.5,83,229.7,86.2
		c16.1,0.6,32.3,0.1,48.4-1.5c19.9-1.8,39.6-5.2,59-10.2c96.1-24.7,178.9-85.7,231-170.1c0.8-1.2,1.6-2.4,2.3-3.7
		c0.7-1.5,2.3-2.3,3.9-2.2c0.6,0,1.3,0,1.9,0c40.5,0,80.9,0,121.4,0c1.6,0.1,3.2,0.3,4.7,0.5c-0.6,1.5-1.2,3-1.8,4.4
		c-57.7,131.8-169.2,232.5-306.3,276.4c-27.4,8.8-55.5,15.2-84,18.8c-11.7,1.5-23.5,2.5-35.3,3.8c-1.6,0-3.1-0.2-4.7,0
		C524.4,999.3,519.9,999.7,515.4,1000z"/>
	<path class="st1" d="M490.4,0h21.1c1.4,0.1,2.8,0.3,4.2,0.3c4.4,0.2,8.8,0.4,13.1,0.5c17.2,1.3,34.4,2.9,51.4,5.7
		c22.1,3.5,43.9,8.5,65.3,15C756.5,55.9,845.3,120.7,912,215.7c18.1,25.9,33.7,53.6,46.4,82.6c0.7,1.6,1.8,3.1,1.5,5
		c-2.1,0-4.2-0.2-6.2-0.2H829.4c-48-77.4-114-132.8-199.7-163.4s-172-30.5-257.6,0s-151.6,86-199.7,163.4H48.2
		c-2.1,0-4.2,0.1-6.2,0.2c-0.3-2.1,0.9-3.7,1.7-5.4c40.2-89.6,101.3-161.5,183-215.8c50.3-33.3,106.2-57,165.1-69.9
		c18.3-4,36.7-7.1,55.3-9.1c5.7-0.6,11.5-0.9,17.2-1.3c2.4,0.4,4.7,0.5,7-0.6l3-0.1c4.5,0,9-0.1,13.5-0.2
		C488.7,0.7,489.6,0.4,490.4,0z"/>
	<path class="st2" d="M464.3,1.8c-5.7,0.4-11.5,0.7-17.2,1.3c-18.6,2-37.1,5.1-55.3,9.1c-58.9,13-114.8,36.7-165.1,69.9
		c-81.9,54.2-142.9,126.1-183,215.8c-0.8,1.7-2,3.3-1.7,5.4c-1.9,1.4-2.4,3.4-2.7,5.6c-0.7,1.4-1.5,2.8-2.1,4.2
		c-5.1,12.5-9.7,25.2-13.6,38.1c-3,9.7-6,19.4-8,29.4c-0.9,1.8-1.3,3.9-1.2,5.9c-0.6,2-1.3,3.9-1.7,5.9C9,409.7,6.1,427,4.2,444.4
		c-0.5,4.7-0.8,9.5-1.2,14.3c-0.8,1.6-1.1,3.5-0.7,5.3l-0.6,13.8c-0.6,0.3-1.1,0.9-1.7,0.2V0h474.1c0,0.3,0.1,0.7,0.2,1.1l-3,0.1
		C468.9,0.8,466.5,1,464.3,1.8z"/>
	<path class="st2" d="M40.8,695.7c9,21.5,19.6,42.4,31.8,62.3c52.5,86.1,124.3,151,215.4,194.5c37.7,17.9,77.6,30.9,118.6,38.7
		c17.6,3.4,35.3,5.8,53.2,7.2c2.9,0.2,5.7,0.5,8.6,0.8c0,0.3,0,0.6,0,0.9H0V517.3c1.6,1.8,1.5,4.1,1.6,6.2c0.3,4.2,0.4,8.5,0.6,12.7
		c-0.3,1.7-0.1,3.5,0.7,5.1c0.1,1.9,0.1,3.8,0.3,5.7c1.5,15.3,3.5,30.5,6.4,45.6c1.5,7.5,3.2,15,4.9,22.5l0.9,3
		c0.1,0.9,0.2,1.9,0.3,2.8c5.9,23.6,13.5,46.7,22.7,69.2c0.5,1.1,1.2,2.2,1.9,3.3C40.5,694.1,40.6,694.9,40.8,695.7z"/>
	<path class="st2" d="M959.9,303.3c0.3-1.9-0.8-3.4-1.5-5c-12.7-29-28.2-56.6-46.4-82.6C845.2,120.8,756.4,56.1,645.6,21.5
		c-21.4-6.5-43.2-11.5-65.3-15c-17.1-2.7-34.3-4.3-51.4-5.7c0-0.3,0-0.6,0-0.9H1000v463.5c-1.2-1.5-0.8-3.3-1.1-4.9
		c-0.4-4.6-0.6-9.2-1.1-13.8c-1.6-14.1-3.6-28.1-6.5-41.9c-1.1-5.4-2.5-10.8-3.8-16.2c0.1-2.1-0.3-4.1-1.3-6
		c-0.2-0.9-0.4-1.9-0.6-2.8c-5.6-22.6-12.9-44.8-21.8-66.4c-0.4-0.9-0.9-1.7-1.3-2.5C962.3,306.8,961.8,304.7,959.9,303.3z"/>
	<path class="st2" d="M533.6,999.1c11.8-1.2,23.5-2.3,35.3-3.8c28.5-3.7,56.6-10,84-18.8C789.9,932.6,901.5,832,959.2,700.1
		c0.6-1.5,1.2-3,1.8-4.4l0.7-2.4c0.7-1.4,1.5-2.8,2.2-4.2c8.7-21.3,16-43.1,21.6-65.4c0.5-1.8,0.7-3.7,1.1-5.6l0.9-3
		c0.4-1.5,0.8-3.1,1.2-4.6c3.6-15.5,6.3-31.3,8.3-47.1c0.9-7.3,1.4-14.6,2.1-21.9l0.1-4.8v-0.1h0.5h0.4V1000H533.6
		C533.6,999.7,533.6,999.4,533.6,999.1z"/>
	<path class="st3" d="M987.4,615l-0.9,3h-63.2c-17.6,0-35.1,0-52.7,0c-1.7,0-3.5-0.4-5.4,0.7c-0.5,1.3-1,2.8-1.5,4.3
		c-4.4,13.3-9.7,26.4-15.8,39.1c-4.5,9.2-9.3,18.2-14,27.3c-0.5,1.1-1.6,2-0.8,3.8h122.5c2.1,0,4.1,0.1,6.2,0.2l-0.7,2.5
		c-1.6-0.3-3.1-0.4-4.7-0.5c-40.4,0-80.9,0-121.4,0c-0.6,0-1.3,0-1.9,0c-1.6-0.2-3.2,0.7-3.9,2.2c-0.7,1.3-1.5,2.5-2.3,3.7
		c-52.1,84.4-134.9,145.4-231,170c-19.4,4.9-39.1,8.3-59,10.2c-16.1,1.6-32.2,2.1-48.4,1.5c-86.1-3.3-162.7-32.1-229.7-86.2
		c-33.3-27.1-61.8-59.7-84.2-96.3c-3.4-5.5-2.1-5-9.1-5c-39.5,0-79,0-118.5,0c-2.1,0-4.1,0.3-6.2,0.5c-0.2-0.8-0.3-1.6-0.5-2.3
		c2.1-0.1,4.1-0.2,6.2-0.2h116.1c1.6,0,3.2,0,4.8,0c0.8,0,1.6,0.1,2-1.2c-2.5-4.6-5.1-9.3-7.6-14.1s-4.9-9.7-7.3-14.6
		c-2.3-4.8-4.4-9.6-6.5-14.4c-2.1-5-4-10.1-6-15.2s-3.4-10.3-5.8-15.5c-40.4,0-80.7,0-120.9,0c-0.3-1-0.6-2-0.9-3h116
		c0.6,0,1.3,0,1.9,0c0.9-0.1,1.8-0.2,3-0.4c-1.7-6.3-3.4-12.3-5-18.3s-3-12.1-4.2-18.2s-2.2-12.2-3.4-18.4s-1.4-12.3-2.8-18.6
		c-2.2,0-4.1-0.1-6-0.1H8.6c-1.9,0-3.8,0.1-5.7,0.2c-0.8-1.6-1-3.4-0.7-5.1c2.1,1.1,4.4,0.8,6.6,0.8c34.8,0,69.6,0,104.4,0
		c1.3,0,2.6,0,3.8-0.1c0.9-0.2,1.8-0.4,2.6-0.8c0-1,0.1-1.8,0-2.6c-2-22.1-2-44.4,0-66.5c0-0.9-0.1-1.9-0.2-2.8
		c-1.9-0.5-3.9-0.6-5.9-0.4H8.1c-1.9,0-3.8,0.1-5.7,0.2c-0.4-1.8-0.2-3.6,0.6-5.3c0.6,0,1.3,0.1,1.9,0.1h111.3c1.2,0,2.5-0.2,4-0.3
		c0.3-1.5,0.6-2.9,0.7-4.3c1.2-11,3-21.9,5.4-32.6c2.3-10,4.9-19.9,7.4-29.8c0.4-1.5,1.2-3,0.4-5c-1.8,0-3.7-0.1-5.6-0.1H20.6
		c-2.1,0-4.1-0.1-6.2-0.1c-0.1-2,0.3-4.1,1.2-5.9c1.1,0,2.2,0.1,3.4,0.1h113.6c1.4,0,2.8-0.1,4.5-0.2c1.8-4.9,3.4-9.7,5.3-14.5
		c1.9-4.9,3.8-9.8,5.9-14.7c2-4.7,4.1-9.4,6.2-14s4.7-9.5,7-14.2c2.2-4.5,5.1-8.7,7-13.7c-2-0.8-3.8-0.5-5.5-0.5
		c-39.1,0-78.3,0-117.5,0c-2.1,0-4.2-0.1-6.2-0.2c0.2-2.2,0.8-4.2,2.7-5.6c2.1-0.1,4.2-0.2,6.2-0.2h124.3
		c48.1-77.4,114-132.8,199.7-163.4s172-30.5,257.6,0s151.7,86,199.7,163.4h124.2c2.1,0,4.2,0.1,6.2,0.2c1.9,1.4,2.4,3.5,2.7,5.6
		c-2.1,0-4.2,0.1-6.2,0.1H839.8c-1.4,0-2.9,0-4.3,0c-0.8,0-1.6-0.1-2,1.2c2.9,5.5,6,11.1,8.8,16.8s5.6,11.5,8.2,17.3
		s5.2,12,7.5,18.1c2.3,5.9,4.4,11.9,6.7,18.1c2.1,0,4,0.1,5.9,0.1h109.8c1.9,0,3.8-0.1,5.8-0.1c0.9,1.9,1.4,3.9,1.3,6
		c-2.1,0-4.2,0.1-6.2,0.1h-98.2c-4.3,0-8.6,0-12.9,0c-0.9,0.1-1.8,0.2-2.7,0.4c-0.5,2.1,0.3,3.7,0.8,5.4c6,20.6,10.2,41.6,12.7,62.8
		c0.2,1.1,0.5,2.3,0.8,3.4c2.1,0,4,0.1,5.9,0.1h105.4c1.9,0,3.8-0.1,5.7-0.2c0.3,1.7-0.2,3.5,1.1,4.9V474c-0.4-3.3-0.9-6.5-1.3-9.7
		c-2.1-0.9-4-0.6-5.9-0.6c-34.8,0-69.7,0-104.5,0c-1.1,0-2.2,0-3.3,0c-0.9,0.2-1.8,0.4-2.6,0.7c0,1.4,0,2.5,0,3.6
		c0.5,9.2,1.1,18.5,1.3,27.8c0.2,12.3-0.2,24.6-1.4,36.9c-0.1,1.2-0.5,2.5,0.8,4c1.3,0.1,2.8,0.2,4.4,0.2c35.6,0,71.2,0,106.9,0
		c1.6,0,3.2-0.2,4.8-0.3l-0.1,4.8c-1.6-0.1-3.2-0.3-4.8-0.3c-35.8,0-71.6,0-107.3,0c-1.6,0-3.2,0.1-4.4,0.1c-1.4,1.5-1.2,3-1.4,4.4
		c-1.5,9.3-2.7,18.6-4.4,27.9c-2.4,12.7-5.5,25.3-9.2,37.7c-0.3,1.2-1.2,2.3,0,4h98C972.7,615.1,980.1,615,987.4,615z M462.4,463.5
		l-30,0.1c-2.5,0-5.1-0.1-7.7-0.1H235.6c-2.6,0-5.1,0-7.7,0.1c-1.6,0-3.2,0.1-4.8,0.1h-89.3c-1.4,0-2.9,0-4.3,0
		c-0.8,0.1-1.6,0.3-2.4,0.5c-1.1,8-1.7,16-1.6,24c-0.1,8.1-0.1,16.3,0,24.4c0.1,8,0.3,15.9,1.8,24c1.9,0.1,3.4,0.2,5,0.2
		c30.2,0,60.5,0,90.7,0c1.7,0,3.5-0.3,5.2-0.5c2.2,0.1,4.5,0.2,6.7,0.2h190.4c2.2,0,4.5-0.1,6.7-0.2c1.4,0.1,2.9,0.4,4.3,0.4
		c7.5,0,15,0,22.5,0c1.3,0,2.5-0.2,3.8-0.3c1.9,0,3.8,0.1,5.7,0.1h95.1c1.9,0,3.8-0.1,5.7-0.2c10.5,0.6,20.9,0.6,31.4,0
		c2.2,0.1,4.5,0.2,6.7,0.2h159.6c2.2,0,4.5-0.1,6.7-0.2c1.9,0.2,3.8,0.5,5.7,0.5c29.9,0,59.8,0,89.7,0c1,0,1.9,0,2.9,0
		c0.9-0.2,1.9-0.4,2.8-0.6c0.2-0.8,0.3-1.7,0.4-2.5c0.4-6.4,0.9-12.8,1.1-19.2c0.6-15.5,0.3-31-1-46.5c-0.1-1.4,0.2-2.9-1.5-4.3
		c-1.5,0-3.5-0.1-5.3-0.1h-89.3c-1.8,0-3.5-0.1-5.3-0.1c-1.9,0-3.8-0.1-5.8-0.1H550.8L462.4,463.5z M472.2,457.9
		c2,1.4,4.3,0.9,6.5,0.9c26.8,0,53.7,0,80.5,0c3.3,0,6.7-0.1,10.1-0.1h31.3c1.9,0,3.8,0.1,5.7,0.1h160.4c2.1,0,4.1-0.1,6.2-0.1
		c1.8,0,3.5,0.1,5.3,0.1c7.2,0,14.4,0,21.6,0c22.9,0,45.7,0,68.6,0c1.9,0,3.8,0.4,5.6-0.6c0.6-11.4-9.8-60.5-15.2-71.5H685.5h-86.7
		c-13,0-26,0-39,0c-4-0.2-7.9,0.1-11.8,0.9c-2-1.3-4.3-0.9-6.5-0.9H249.7c-35.3,0-70.6,0.1-105.9,0.1c-0.3,0-0.6,0.2-0.9,0.4
		c-5.3,11-15.3,58.4-15,71c1.8,1,3.7,0.6,5.6,0.6c30,0,60,0,90.1,0c1.8,0,3.5-0.1,5.3-0.2c2.6,0,5.1,0.1,7.7,0.1H425
		c2.4,0,4.8-0.1,7.2-0.1c9.3,0,18.5,0.1,27.7,0.1C464.1,458.8,468.2,459,472.2,457.9L472.2,457.9z M250.4,615.2h95
		c15.2,0,30.4,0,45.6,0h43h19.6c1.7,0,3.5,0.2,5-1c1.2,0.5,2.4,0.8,3.6,1c1.6,0.1,3.2,0.1,4.8,0.1h284.5l55.1-0.1
		c15.7,0,31.3,0,47,0c1.7,0,3.5,0.4,5.4-0.7c6.5-20,11.1-40.5,14-61.3c0.5-3.7,1.5-7.5,1.1-11.3c-1.8-0.9-3.6-0.6-5.3-0.6
		c-30.2,0-60.4,0-90.5,0c-1.8,0-3.5,0.2-5.2,0.3c-2.4-0.1-4.8-0.2-7.2-0.2H607.3c-2.2,0-4.5,0.1-6.7,0.1c-1.9-0.1-3.8-0.2-5.7-0.2
		c-14,0-27.9,0-41.9,0c-3-0.1-6,0.3-8.9,1.1c-1.8-1.3-4-0.9-6-0.9c-15.7,0-31.5,0-47.3,0c-9.4,0-18.8,0.1-28.2,0.1
		c-4.9-0.1-9.9-0.2-14.8-0.2c-5.2,0-10.5,0.1-15.8,0.2c-2.1,0-4.1-0.1-6.2-0.1H235.6c-2.2,0-4.5,0.1-6.7,0.2
		c-2.1-0.1-4.1-0.3-6.2-0.3c-28,0-56,0-84,0c-2.6,0-5.1,0-7.7,0c-1.1,0.1-2.1,0.3-3.2,0.5c0,14.5,9.8,60.5,15.7,73.4
		c1.6,0,3.4,0.1,5.1,0.1h58.5C221.6,615.2,236,615.1,250.4,615.2z M592.9,381c0.5,0,1-0.1,1.4-0.1h146.1c1.6,0,3.2,0,4.8-0.1
		c1.2-0.1,2.1-0.8,2.5-1.9c1,1.1,2,2.1,3.6,1.9c1.3-0.1,2.6,0,3.8,0h93.4c1.9,0,3.8,0,5.8,0c0.7-0.1,1.5-0.2,2.2-0.4
		c-2.2-12.9-24.3-61-32.7-71.2h-55.7l-68.5-0.1H302.2h-71.9c-16,0-32,0-47.9,0c-1.7,0-3.5-0.4-5.4,0.7c-0.8,1.3-1.7,2.8-2.6,4.3
		c-2.9,5.3-5.9,10.6-8.6,16c-7.6,14.8-14.1,30.1-19.6,45.8c-0.5,1.4-1.6,2.8-0.6,4.8c1.6,0,3.4,0.1,5.1,0.1h96.3c1,0,1.9-0.1,2.9,0
		c1.6,0.1,3.2-0.6,4.1-2c0.5,1.2,1.7,2,3,2c1.9,0,3.8,0.1,5.8,0.1c100.5,0,201,0,301.5,0c3.7,0,7.3-0.4,11-0.6
		c1.7,0.2,3.4,0.5,5.1,0.5C584.5,380.9,588.7,380.9,592.9,381z M252.4,618.1H147.9c-0.3,0-0.6,0-0.9,0s-0.6,0-1,0.1
		c-0.2,0-0.3,0.1-0.4,0.2l-0.5,0.3c-0.6,2.1,0.6,4,1.3,5.9c8.3,23.9,19.1,46.8,32.2,68.5c2,0,3.7,0.1,5.4,0.1c38.4,0,76.7,0,115.1,0
		c1.8,0,3.5-0.1,5.3-0.2c2.9,0,5.7,0.1,8.6,0.1h375.3c3.2,0,6.4-0.1,9.6-0.1c1.4,0.1,2.9,0.2,4.3,0.2h117c1.4,0,2.8-0.1,4.4-0.2
		c0.9-1.4,1.8-2.8,2.6-4.1c3.4-6.2,6.8-12.3,10.1-18.5c7.7-14.9,14.2-30.4,19.7-46.3c0.6-1.8,1.8-3.5,1-5.8c-1.5,0-3.1-0.1-4.7-0.1
		h-97.8c-1.9-0.3-3.8,0.1-5.4,1.2c-1-0.9-2.2-1.3-3.5-1.2L741,618h-75.8H454.8h-60.5c-0.5,0-1,0-1.4,0L252.4,618.1z M691.9,302.3
		c1.4,0.9,3.1,0.8,4.7,0.8h11c35.7,0,71.3,0,107,0c1.8,0.2,3.6,0.1,5.4-0.4c-0.3-2.2-1.6-3.6-2.6-5.2c-20-31.3-44.6-59.5-73-83.5
		c-64.2-54.2-138.3-83.9-222.2-89c-20.1-1.2-40.3-0.7-60.4,1.4c-18,1.8-35.8,5-53.3,9.5C327.7,157,261,200,208.2,264.6
		c-8.8,10.8-16.9,22.1-24.3,33.9c-0.8,1.3-2,2.5-2,4.5c1.8,0.1,3.3,0.2,4.9,0.2c15.7,0,31.3,0,47,0h70c2,0,4.2,0.3,6.1-0.8
		c1,0.4,2.1,0.7,3.2,0.9c1.4,0.1,2.9,0.1,4.3,0.1h367c1.4,0.1,2.9,0,4.3-0.1C689.7,303,690.9,302.7,691.9,302.3z M307.9,696
		c-2.1-1.1-4.4-0.8-6.6-0.8H186.2c-1.1,0-2.2,0-3.4,0c-0.7,0.1-1.4,0.3-2.1,0.6c0,0.4,0.1,0.8,0.2,1.2c0.7,1.2,1.4,2.5,2.2,3.7
		C218,755.5,264,798.6,320.9,830c48,26.3,99.4,41.2,153.9,45c22.5,1.6,45.1,1.1,67.5-1.4c17.5-1.9,34.8-5,51.9-9.4
		c81-21.2,147.6-64.6,200.3-129.5c9.1-11.2,17.4-23,25-35.2c0.7-1.2,1.8-2.2,1.6-3.9c-1.8-0.4-3.6-0.6-5.4-0.4H699.6
		c-1.9,0-3.8-0.1-5.6,0.8c-1-0.4-2.1-0.8-3.1-1c-1.4-0.1-2.9-0.1-4.3-0.1H315.4c-1.4-0.1-2.9,0-4.3,0.1
		C310,695.2,308.9,695.5,307.9,696z"/>
	<path class="st4" d="M2.3,464c1.9-0.1,3.8-0.2,5.7-0.2h105.4c2-0.2,4,0,5.9,0.4c0.1,0.9,0.2,1.9,0.2,2.8c-2,22.1-2,44.4,0,66.5
		c0.1,0.8,0,1.6,0,2.6c-0.8,0.3-1.7,0.6-2.6,0.8c-1.3,0.1-2.6,0.1-3.8,0.1c-34.8,0-69.6,0-104.4,0c-2.2,0-4.5,0.4-6.6-0.8
		c-0.2-4.2-0.3-8.5-0.6-12.7c-0.1-2.1,0-4.4-1.6-6.2v-27.9c1.2-0.8,1.9-2.2,1.8-3.7c0-2.7,0-5.4-0.1-8L2.3,464z"/>
	<path class="st4" d="M999.1,536.6c-1.6,0.1-3.2,0.3-4.8,0.3c-35.6,0-71.3,0-106.9,0c-1.6,0-3.1-0.1-4.4-0.2c-1.3-1.4-0.9-2.7-0.8-4
		c1.2-12.3,1.6-24.6,1.4-36.9c-0.2-9.3-0.9-18.5-1.3-27.8c0-1.1,0-2.2,0-3.6c0.8-0.3,1.7-0.6,2.6-0.7c1.1-0.1,2.2-0.1,3.3,0
		c34.8,0,69.7,0,104.5,0c1.9,0,3.8-0.3,5.9,0.6c0.4,3.1,0.9,6.4,1.3,9.7v52.8c-0.4,3.2-1.3,6.4-0.9,9.6L999.1,536.6z"/>
	<path class="st5" d="M1.7,477.8c0,2.7,0.1,5.4,0.1,8c0.1,1.5-0.6,2.9-1.8,3.7v-11.5C0.7,478.6,1.2,478,1.7,477.8z"/>
	<path class="st3" d="M533.6,999.1c0,0.3,0,0.6,0,0.9h-18.2c4.5-0.3,9-0.7,13.5-1C530.5,999,532,999.1,533.6,999.1z"/>
	<path class="st3" d="M528.8,0c0,0.3,0,0.6,0,0.9c-4.4-0.2-8.8-0.3-13.1-0.5c-1.4-0.1-2.8-0.2-4.2-0.3L528.8,0z"/>
	<path class="st5" d="M474.2,1.1c0-0.4-0.1-0.7-0.2-1.1h16.3c-0.8,0.4-1.7,0.7-2.6,0.9C483.3,1,478.8,1,474.2,1.1z"/>
	<path class="st5" d="M476.2,999.1c3,0,6.1-0.1,9.1,0c1.1,0.2,2.2,0.4,3.2,0.8H476C476.2,999.7,476.3,999.4,476.2,999.1z"/>
	<path class="st3" d="M999.1,536.5c-0.4-3.3,0.5-6.4,0.9-9.6v9.6h-0.4L999.1,536.5z"/>
	<path class="st3" d="M476.2,999.1c0.1,0.3,0,0.6-0.2,0.9h-7.7c0-0.3,0-0.6,0-0.9L476.2,999.1z"/>
	<path class="st5" d="M464.3,1.8c2.3-0.8,4.7-1,7-0.6C469,2.3,466.7,2.2,464.3,1.8z"/>
	<path class="st6" d="M39.3,308.9c2.1,0.1,4.2,0.2,6.2,0.2c39.2,0,78.3,0,117.5,0c1.7,0,3.5-0.3,5.5,0.5c-1.9,5-4.8,9.1-7,13.7
		c-2.3,4.7-4.7,9.4-7,14.2s-4.3,9.3-6.2,14c-2,4.9-4,9.8-5.9,14.7c-1.8,4.8-3.5,9.6-5.3,14.5c-1.7,0.1-3.1,0.2-4.5,0.2H18.9
		c-1.1,0-2.2,0-3.4-0.1c2.1-10,5-19.7,8-29.4c4-12.9,8.5-25.6,13.6-38.1C37.8,311.7,38.6,310.3,39.3,308.9z"/>
	<path class="st1" d="M14.3,386.6c2.1,0,4.1,0.1,6.2,0.1h107.9c1.9,0,3.8,0.1,5.6,0.1c0.8,2,0,3.4-0.4,5c-2.5,9.9-5.1,19.8-7.4,29.8
		c-2.4,10.8-4.2,21.7-5.4,32.6c-0.2,1.4-0.5,2.8-0.7,4.3c-1.5,0.1-2.8,0.3-4,0.3H4.8c-0.6,0-1.3-0.1-1.9-0.1
		c0.4-4.8,0.6-9.5,1.2-14.3c2-17.4,4.8-34.7,8.5-51.9C13.1,390.5,13.8,388.6,14.3,386.6z"/>
	<path class="st1" d="M15.4,618.1c40.3,0,80.6,0,120.9,0c2.4,5.2,3.8,10.5,5.8,15.5s3.9,10.1,6,15.2s4.2,9.7,6.5,14.4
		c2.3,4.9,4.7,9.8,7.3,14.6c2.5,4.8,5.1,9.5,7.6,14.1c-0.4,1.3-1.3,1.2-2,1.2c-1.6,0-3.2,0-4.8,0H46.5c-2.1,0-4.2,0.2-6.2,0.2
		c-0.7-1-1.3-2.1-1.9-3.3c-9.2-22.5-16.8-45.6-22.7-69.2C15.5,619.9,15.4,619,15.4,618.1z"/>
	<path class="st7" d="M2.8,541.3c1.9-0.1,3.8-0.2,5.7-0.2H114c1.9,0,3.8,0.1,6,0.1c1.4,6.3,1.7,12.5,2.8,18.6s2.1,12.3,3.4,18.4
		s2.7,12.2,4.2,18.2s3.2,12,5,18.3c-1.2,0.2-2.1,0.3-3,0.4c-0.6,0.1-1.3,0-1.9,0h-116c-1.6-7.5-3.4-15-4.9-22.5
		c-3-15.1-4.9-30.3-6.4-45.6C3,545.1,3,543.2,2.8,541.3z"/>
	<path class="st6" d="M986.3,380.7c-1.9,0-3.8,0.1-5.8,0.1H870.7c-1.9,0-3.8-0.1-5.9-0.1c-2.3-6.2-4.4-12.2-6.7-18.1
		c-2.4-6.1-4.9-12.2-7.5-18.1s-5.4-11.6-8.2-17.3s-6-11.3-8.8-16.8c0.4-1.3,1.2-1.2,2-1.2c1.4,0,2.9,0,4.3,0h116.5
		c2.1,0,4.2-0.1,6.2-0.1c0.5,0.8,1,1.6,1.3,2.5c8.8,21.6,16.1,43.8,21.8,66.4C985.9,378.8,986.1,379.7,986.3,380.7z"/>
	<path class="st1" d="M998.9,458.6c-1.9,0.1-3.8,0.2-5.7,0.2H887.8c-1.9,0-3.8-0.1-5.9-0.1c-0.3-1.1-0.6-2.3-0.8-3.4
		c-2.5-21.3-6.7-42.3-12.7-62.8c-0.5-1.6-1.3-3.3-0.8-5.4c0.9-0.2,1.8-0.3,2.7-0.4c4.3,0,8.6,0,12.9,0h98.2c2.1,0,4.2,0,6.2-0.1
		c1.3,5.4,2.6,10.8,3.8,16.2c2.8,13.9,4.9,27.9,6.5,41.9C998.3,449.4,998.6,454,998.9,458.6z"/>
	<path class="st1" d="M961.7,693.3c-2.1-0.1-4.2-0.2-6.2-0.2H833c-0.8-1.8,0.3-2.7,0.8-3.8c4.7-9.1,9.5-18.1,14-27.3
		c6.1-12.7,11.3-25.7,15.7-39.1c0.5-1.5,1.1-3,1.5-4.3c1.9-1,3.7-0.7,5.4-0.7c17.6,0,35.1,0,52.7,0h63.2c-0.3,1.9-0.6,3.8-1.1,5.6
		c-5.7,22.3-12.9,44.2-21.6,65.4C963.2,690.6,962.4,691.9,961.7,693.3z"/>
	<path class="st7" d="M987.4,615c-7.3,0-14.7,0.1-22,0.1h-98c-1.2-1.6-0.4-2.8,0-4c3.8-12.4,6.8-24.9,9.2-37.7
		c1.7-9.3,2.9-18.6,4.4-27.9c0.2-1.4,0-2.9,1.4-4.4c1.3,0,2.8-0.1,4.4-0.1c35.8,0,71.6,0,107.3,0c1.6,0,3.2,0.2,4.8,0.3
		c-0.7,7.3-1.2,14.6-2.1,21.9c-2,15.8-4.7,31.5-8.3,47.1C988.2,611.9,987.8,613.5,987.4,615z"/>
	<path class="st1" d="M694,695.9c1.8-1,3.7-0.8,5.6-0.8h116.1c1.8-0.2,3.6,0,5.4,0.4c0.2,1.7-0.9,2.8-1.6,3.9
		c-7.6,12.2-15.9,24-25,35.2c-52.7,65-119.3,108.4-200.3,129.5c-17,4.4-34.4,7.5-51.9,9.4c-22.4,2.5-45,3-67.5,1.4
		c-54.5-3.9-106-18.7-153.9-45c-57-31.3-102.9-74.5-137.7-129.3c-0.8-1.2-1.5-2.5-2.2-3.7c-0.1-0.4-0.2-0.8-0.2-1.2
		c0.7-0.3,1.4-0.4,2.1-0.6c1.1-0.1,2.2,0,3.4,0h115.2c2.2,0,4.5-0.3,6.6,0.8c1.4,1.5,2.8,3,4.3,4.5c50.5,46.8,110.2,71.8,179.1,74.7
		c22.4,0.9,44.8-1.1,66.6-5.8c41.9-8.8,81.2-27.4,114.6-54.2C680.2,709.3,687.4,702.9,694,695.9z"/>
	<path class="st1" d="M310,302.3c-1.9,1.1-4,0.8-6.1,0.8h-70c-15.7,0-31.3,0-47,0c-1.6,0-3.1-0.1-4.9-0.2c0-2,1.2-3.2,2-4.5
		c7.4-11.8,15.6-23.1,24.3-33.9c52.8-64.6,119.5-107.7,200.3-128.7c17.5-4.5,35.3-7.6,53.3-9.4c20-2.2,40.1-2.7,60.2-1.5
		c83.8,5.2,157.9,34.9,222.2,89c28.4,24,53,52.2,73,83.5c1,1.5,2.3,3,2.6,5.2c-1.8,0.4-3.6,0.6-5.4,0.4c-35.7,0-71.3,0-107,0h-11
		c-1.6,0-3.2,0.1-4.7-0.8c-3.8-3.6-7.6-7.3-11.6-10.7C631.8,250.3,575.8,228,512,225.2c-22.4-1-44.8,0.8-66.7,5.3
		c-45.5,9.3-87.8,30-123,60.3C318,294.5,314,298.5,310,302.3z"/>
	<path class="st2" d="M697.7,692.9c-3.2,0-6.4,0.1-9.6,0.1H312.8c-2.9,0-5.7-0.1-8.6-0.1c-0.8-1-1.6-2-2.5-2.9
		c-7.6-8-14.7-16.4-21.3-25.2c-11-14.5-20.4-30.2-28.1-46.7h140.6c0.5,0,1,0,1.4,0c0.9,2.2,2.9,3.4,4.7,4.6
		c11.1,7.7,23.3,9.6,36.4,6.5c5.5-1.2,10.6-3.5,15.2-6.7c1.6-1.2,3.5-2.3,4.3-4.4h210.4H741h4.3c1.3-0.1,2.6,0.4,3.5,1.2
		c-0.6,1.3-1.1,2.7-1.8,3.9c-12.1,24.2-27.7,46.4-46.3,66.1C699.7,690.5,698.7,691.7,697.7,692.9z"/>
	<path class="st8" d="M302.2,309h397.4c1,1.4,2,2.9,3.1,4.1c12.9,13.8,24.2,28.9,33.9,45.1c4,6.7,7.4,13.7,11.1,20.6
		c-0.4,1.1-1.4,1.9-2.5,1.9c-1.6,0.1-3.2,0.1-4.8,0.1H594.4c-0.5,0-1,0-1.4,0.1c-0.5-1-1.4-1.7-2.5-1.9c-2.6-0.8-5.3-1-7.9-0.5
		c-2.5,0.5-4.9,1.2-7.3,1.8c-3.7,0.2-7.3,0.6-11,0.6c-100.5,0-201,0-301.5,0c-1.9,0-3.8,0-5.8-0.1c-1.3,0-2.5-0.8-3-2
		c0.9-1.9,1.7-3.8,2.7-5.6c11.4-21.8,25.6-42,42.3-60.1C300.2,311.9,301.2,310.4,302.2,309z"/>
	<path class="st9" d="M694,695.9c-6.6,6.9-13.7,13.4-21.3,19.2C639.2,742,600,760.6,558,769.4c-21.9,4.7-44.3,6.7-66.7,5.8
		c-68.8-3-128.5-27.9-179.1-74.7c-1.5-1.4-2.9-3-4.3-4.5c1-0.4,2.1-0.8,3.1-1c1.4-0.1,2.9-0.1,4.3-0.1h371.2c1.4-0.1,2.9,0,4.3,0.1
		C691.9,695.2,693,695.5,694,695.9z"/>
	<path class="st9" d="M310,302.3c4.1-3.8,8-7.8,12.3-11.4c35.2-30.2,77.5-51,123-60.3c21.9-4.6,44.3-6.4,66.7-5.3
		c63.7,2.8,119.8,25.1,168.4,66.3c4,3.4,7.7,7.1,11.6,10.7c-1,0.4-2.1,0.7-3.2,0.9c-1.4,0.1-2.9,0.1-4.3,0.1h-367
		c-1.4,0.1-2.9,0-4.3-0.1C312.1,303,311,302.7,310,302.3z"/>
	<path class="st8" d="M600.6,541.3c2.2,0,4.5-0.1,6.7-0.1h158.4c2.4,0,4.8,0.1,7.2,0.2c-0.2,1.6-0.3,3.2-0.6,4.8
		c-3.8,22.4-10.3,44.2-19.5,65c-0.5,1.3-0.9,2.6-1.3,4H467c-1.6,0.1-3.2,0-4.8-0.1c-1.2-0.2-2.4-0.6-3.6-1c2.9-5.7,4.4-12,4.1-18.4
		c-0.2-18.1,0-36.3,0-54.4c9.4,0,18.8-0.1,28.2-0.1c15.7,0,31.5,0,47.3,0c2,0,4.2-0.4,6,0.9c-1.3,0.7-2.6,1.2-3.8,2
		c-6.2,3.4-11.2,8.7-14,15.2c-3.9,9-2.9,17.4,3.1,25.2c3,3.9,6.9,7.2,11.2,9.6c9.3,5.2,20.2,6.8,30.6,4.5c5.2-1,10.2-2.8,14.7-5.5
		c6.7-4,11.4-9.7,13.3-17.4c0.7-3.1,1.1-6.3,1.2-9.5C600.7,557.9,600.6,549.6,600.6,541.3z"/>
	<path class="st2" d="M249.7,386.7h291.7c2.2,0,4.5-0.4,6.5,0.9c-1.2,0.4-2.4,0.8-3.7,1.1c-31.4,8.7-62.8,17.4-94.2,26.2
		c-2.8,0.7-5.5,1.7-8.1,2.9c-4.9,2.2-8.4,6.8-9.2,12.2c-0.4,2.5-0.7,5.1-0.7,7.6c-0.1,7,0,14.1,0.1,21.1c-2.4,0-4.8,0.1-7.2,0.1
		H236.6c-2.6,0-5.1-0.1-7.7-0.1c0.2-1.6,0.4-3.2,0.7-4.7c3.7-21.6,9.9-42.6,18.6-62.7C248.8,389.8,249.2,388.2,249.7,386.7z"/>
	<path class="st2" d="M432.1,536.4c-2.2,0.1-4.5,0.2-6.7,0.2H234.9c-2.2,0-4.5-0.1-6.7-0.2c-0.4-3.3-0.8-6.6-1.1-9.9
		c-1.3-12.5-1.7-25.1-1-37.6c0.5-8.4,1.3-16.8,1.9-25.2c2.6,0,5.1-0.1,7.7-0.1h189.1c2.5,0,5.1,0,7.7,0.1c-0.1,2.1-0.2,4.1-0.2,6.2
		C432.1,492.1,432.1,514.3,432.1,536.4z"/>
	<path class="st2" d="M600.4,463.6h167.8c1.9,0,3.8,0,5.8,0.1c0,0.5-0.1,0.9-0.1,1.4c0.7,8.2,1.5,16.5,2,24.7
		c0.7,15.6,0,31.2-2.2,46.6c-2.2,0-4.5,0.2-6.7,0.2H607.3c-2.2,0-4.5-0.1-6.7-0.2c0-22.2,0-44.4,0-66.6
		C600.6,467.8,600.5,465.7,600.4,463.6z"/>
	<path class="st2" d="M228.9,541.4c2.2-0.1,4.5-0.2,6.7-0.2h190.2c2.1,0,4.1,0.1,6.2,0.1c0,3,0,6,0,9.1c0,2.9,0.1,5.7,0,8.6
		s0.4,6-0.5,9.2c-1.9,0.3-3.8,0.6-5.6,1c-5.5,1-11.1,1.6-16.4,3c-9.6,2.4-17.5,9.3-21.2,18.5c-3,6.5-2.8,14,0.5,20.3
		c0.7,1.4,1.5,2.8,2.3,4.2c-15.2,0-30.4,0-45.6,0h-95c-0.7-1.9-1.3-3.9-2.1-5.8C238.9,587.6,232.3,564.8,228.9,541.4z"/>
	<path class="st2" d="M598.8,386.8h86.7h66.6c1.5,3.9,3,7.7,4.5,11.6c7.8,19.4,13.3,39.7,16.3,60.4c-2.1,0-4.2,0.1-6.2,0.1H606.3
		c-1.9,0-3.8-0.1-5.7-0.1c0-19.7,0-39.5,0.1-59.2C600.7,395.2,600.1,390.9,598.8,386.8z"/>
	<path class="st10" d="M598.8,386.8c1.3,4.1,1.9,8.4,1.8,12.7c-0.1,19.8,0,39.5-0.1,59.2h-31.3c-0.2-8.7,0.2-17.5-0.2-26.5
		c-1.8,0.1-3.6,0.4-5.4,1c-15.2,4.1-30.5,8.2-45.8,12.2c-15.3,4.1-30.5,8.2-45.7,12.4c-4,1.2-8.2,0.9-12.3,0.9
		c-9.2,0-18.5,0-27.7-0.1c0-7-0.1-14.1-0.1-21.1c0-2.6,0.3-5.1,0.7-7.6c0.8-5.4,4.3-9.9,9.2-12.2c2.6-1.2,5.3-2.2,8.1-2.9
		c31.4-8.8,62.8-17.5,94.2-26.2c1.2-0.4,2.5-0.7,3.7-1.1c3.9-0.8,7.8-1.1,11.8-0.9C572.8,386.8,585.8,386.8,598.8,386.8z"/>
	<path class="st7" d="M252.4,618.1c7.7,16.5,17.1,32.2,28.1,46.7c6.6,8.8,13.7,17.3,21.3,25.2c0.9,0.9,1.6,1.9,2.5,2.9
		c-1.8,0.1-3.5,0.2-5.3,0.2c-38.4,0-76.7,0-115,0c-1.7,0-3.5-0.1-5.4-0.1c-13-21.7-23.8-44.6-32.1-68.5c-0.7-1.9-1.9-3.8-1.3-5.9
		l0.5-0.3c0.1-0.1,0.3-0.1,0.4-0.2c0.3,0,0.6-0.1,1-0.1s0.6,0,0.9,0H252.4z"/>
	<path class="st7" d="M697.7,692.9c1-1.2,2-2.4,3.1-3.6c18.6-19.6,34.2-41.9,46.3-66.1c0.6-1.3,1.2-2.6,1.8-3.9
		c1.6-1.1,3.5-1.6,5.4-1.2H852c1.6,0,3.2,0.1,4.7,0.1c0.8,2.4-0.3,4.1-1,5.8c-5.5,15.9-12.1,31.3-19.7,46.3
		c-3.2,6.2-6.7,12.4-10.1,18.5c-0.8,1.4-1.7,2.7-2.6,4.1c-1.5,0.1-3,0.2-4.4,0.2H702C700.5,693.1,699.1,693,697.7,692.9z"/>
	<path class="st4" d="M302.2,309c-1,1.4-2,2.8-3.2,4.1c-16.7,18.1-30.9,38.3-42.3,60.1c-1,1.8-1.8,3.7-2.7,5.6
		c-0.9,1.4-2.4,2.1-4.1,2c-0.9-0.1-1.9,0-2.9,0h-96.3c-1.7,0-3.5-0.1-5.1-0.1c-1-1.9,0.1-3.4,0.6-4.8c5.4-15.7,12-31,19.6-45.8
		c2.8-5.4,5.7-10.7,8.6-16c0.8-1.5,1.8-3,2.6-4.3c1.9-1.1,3.7-0.7,5.4-0.7c16,0,32,0,47.9,0L302.2,309z"/>
	<path class="st4" d="M747.8,378.9c-3.7-6.9-7.2-13.9-11.1-20.6c-9.7-16.2-21-31.3-33.9-45.1c-1.2-1.3-2.1-2.7-3.1-4.1l68.5,0h55.7
		c8.4,10.3,30.5,58.3,32.7,71.2c-0.7,0.2-1.4,0.3-2.2,0.4c-1.9,0.1-3.8,0-5.8,0h-93.4c-1.3,0-2.6-0.1-3.8,0
		C749.7,380.9,748.7,380,747.8,378.9z"/>
	<path class="st2" d="M569.2,536.5c-1.9,0.1-3.8,0.2-5.7,0.2h-95.1c-1.9,0-3.8-0.1-5.7-0.1c0-22.4,0-44.8,0-67.2
		c0-1.9-0.1-3.8-0.2-5.8h88.4h18.6c-0.1,1.9-0.2,3.8-0.2,5.7C569.2,491.7,569.2,514.1,569.2,536.5z"/>
	<path class="st7" d="M751.5,615.2c0.4-1.4,0.8-2.7,1.3-4c9.1-20.8,15.7-42.6,19.5-65c0.3-1.6,0.4-3.2,0.6-4.8
		c1.8-0.1,3.5-0.3,5.2-0.3c30.2,0,60.4,0,90.5,0c1.7,0,3.5-0.3,5.3,0.6c0.4,3.9-0.5,7.6-1.1,11.3c-2.9,20.8-7.5,41.3-14,61.3
		c-1.9,1.1-3.7,0.7-5.4,0.7c-15.7,0-31.3,0-47,0L751.5,615.2z"/>
	<path class="st7" d="M228.9,541.4c3.4,23.4,9.9,46.3,19.4,68c0.8,1.9,1.4,3.9,2.1,5.8c-14.4,0-28.8,0-43.2-0.1h-58.5
		c-1.7,0-3.5-0.1-5.1-0.1c-5.9-12.9-15.7-58.9-15.7-73.4c1-0.2,2.1-0.4,3.2-0.5c2.6-0.1,5.1,0,7.7,0c28,0,56,0,84,0
		C224.8,541.1,226.8,541.3,228.9,541.4z"/>
	<path class="st7" d="M249.7,386.7c-0.5,1.5-1,3-1.6,4.5c-8.6,20.1-14.9,41.1-18.6,62.7c-0.3,1.6-0.4,3.2-0.7,4.7
		c-1.8,0.1-3.5,0.2-5.3,0.2c-30,0-60.1,0-90.1,0c-1.9,0-3.8,0.4-5.6-0.6c-0.3-12.6,9.6-59.9,15-71c0.3-0.1,0.6-0.4,0.9-0.4
		C179.1,386.8,214.4,386.8,249.7,386.7z"/>
	<path class="st7" d="M772.9,458.7c-3-20.7-8.5-41-16.3-60.4c-1.5-3.8-3-7.7-4.5-11.6h106.6c5.5,11,15.8,60,15.2,71.5
		c-1.8,1-3.7,0.6-5.6,0.6c-22.9,0-45.7,0-68.6,0c-7.2,0-14.4,0-21.6,0C776.4,458.8,774.6,458.7,772.9,458.7z"/>
	<path class="st11" d="M227.9,463.7c-0.6,8.4-1.4,16.8-1.9,25.2c-0.7,12.6-0.3,25.1,1,37.6c0.3,3.3,0.8,6.6,1.1,9.9
		c-1.7,0.2-3.5,0.5-5.2,0.5c-30.2,0-60.5,0-90.7,0c-1.6,0-3.1-0.1-5-0.2c-1.5-8.1-1.7-16.1-1.8-24c-0.1-8.1-0.1-16.3,0-24.5
		c0-8,0.5-16,1.6-24c0.8-0.2,1.6-0.4,2.4-0.5c1.4-0.1,2.9,0,4.3,0h89.2C224.7,463.8,226.3,463.7,227.9,463.7z"/>
	<path class="st4" d="M773.6,536.5c2.2-15.4,2.9-31.1,2.2-46.6c-0.5-8.2-1.3-16.5-2-24.7c0-0.5,0-0.9,0.1-1.4c1.8,0,3.5,0.1,5.3,0.1
		h89.2c1.9,0,3.8,0.1,5.3,0.1c1.7,1.3,1.4,2.9,1.5,4.3c1.3,15.5,1.6,31,1,46.5c-0.2,6.4-0.7,12.8-1.1,19.2c-0.1,0.8-0.2,1.7-0.4,2.5
		c-0.9,0.3-1.9,0.5-2.8,0.6c-1,0.1-1.9,0.1-2.9,0c-29.9,0-59.8,0-89.7,0C777.4,536.9,775.5,536.6,773.6,536.5z"/>
	<path class="st10" d="M391,615.1c-0.8-1.4-1.6-2.8-2.3-4.2c-3.3-6.3-3.5-13.8-0.5-20.3c3.8-9.2,11.6-16,21.2-18.5
		c5.3-1.5,10.9-2.1,16.4-3c1.9-0.3,3.8-0.6,5.6-1c1-3.1,0.4-6.2,0.5-9.2s0-5.7,0-8.6c0-3,0-6,0-9.1c5.3-0.1,10.5-0.2,15.8-0.2
		c4.9,0,9.9,0.1,14.8,0.2c0,18.1-0.1,36.3,0,54.4c0.2,6.4-1.2,12.7-4.1,18.4c-1.5,1.2-3.3,1-5,1H434L391,615.1z"/>
	<path class="st10" d="M600.6,541.3c0,8.3,0.1,16.6,0,24.9c0,3.2-0.4,6.4-1.2,9.5c-1.9,7.7-6.6,13.3-13.3,17.4
		c-4.6,2.6-9.6,4.5-14.8,5.4c-10.4,2.3-21.3,0.7-30.6-4.5c-4.4-2.3-8.3-5.5-11.3-9.5c-6-7.8-7-16.2-3.1-25.2
		c2.8-6.5,7.8-11.9,14-15.2c1.2-0.7,2.6-1.3,3.8-2c2.9-0.8,5.9-1.1,8.9-1.1c14,0.1,27.9,0,41.9,0
		C596.8,541.1,598.7,541.2,600.6,541.3z"/>
	<path class="st5" d="M569.2,536.5c0-22.4,0-44.7,0-67.1c0-1.9,0.1-3.8,0.2-5.7h31c0.1,2.1,0.2,4.1,0.2,6.2c0,22.2,0,44.4,0,66.6
		C590.2,537.1,579.7,537.1,569.2,536.5z"/>
	<path class="st12" d="M462.4,463.5c0.1,1.9,0.2,3.8,0.2,5.8c0,22.4,0,44.8,0,67.2c-1.3,0.1-2.5,0.3-3.8,0.3c-7.5,0-15,0-22.5,0
		c-1.4,0-2.9-0.2-4.3-0.4c0-22.2,0.1-44.4,0.1-66.6c0-2.1,0.1-4.1,0.2-6.2L462.4,463.5z"/>
	<path class="st13" d="M472.3,457.9c15.2-4.1,30.5-8.3,45.7-12.4c15.2-4.1,30.5-8.2,45.8-12.2c1.7-0.6,3.6-0.9,5.4-1
		c0.4,9,0,17.7,0.2,26.5c-3.3,0-6.7,0.1-10.1,0.1c-26.8,0-53.6,0-80.5,0C476.6,458.8,474.3,459.2,472.3,457.9z"/>
	<path class="st5" d="M454.8,618c-0.8,2-2.6,3.1-4.3,4.4c-4.6,3.2-9.7,5.5-15.2,6.7c-13.1,3.2-25.3,1.3-36.4-6.5
		c-1.8-1.3-3.8-2.4-4.7-4.6L454.8,618z"/>
	<path class="st5" d="M575.2,380.3c2.4-0.6,4.8-1.3,7.3-1.8c2.6-0.5,5.4-0.3,7.9,0.5c1.1,0.2,2,0.9,2.5,1.9
		c-4.2-0.1-8.4-0.1-12.6-0.2C578.6,380.7,576.9,380.5,575.2,380.3z"/>
</g>
</svg>
