<?xml version="1.0" encoding="utf-8"?>
<!-- Generator: Adobe Illustrator 24.0.1, SVG Export Plug-In . SVG Version: 6.00 Build 0)  -->
<svg version="1.1" id="Layer_1" xmlns="http://www.w3.org/2000/svg" xmlns:xlink="http://www.w3.org/1999/xlink" x="0px" y="0px"
	 viewBox="0 0 24 24" style="enable-background:new 0 0 24 24;" xml:space="preserve">
<style type="text/css">
	.st0{opacity:0.4;fill:#C3CEF5;enable-background:new    ;}
	.st1{fill:#3D63E2;}
</style>
<path class="st0" d="M19.1,9.1c-0.4,0-0.7,0.3-0.7,0.7v1.6c0,3.5-2.9,6.4-6.4,6.4c-3.5,0-6.4-2.9-6.4-6.4V9.8c0-0.4-0.3-0.7-0.7-0.7
	c-0.4,0-0.7,0.3-0.7,0.7v1.6c0,4.1,3.1,7.4,7.1,7.8v2.1c0,0.4,0.3,0.7,0.7,0.7c0.4,0,0.7-0.3,0.7-0.7v-2.1c4-0.4,7.1-3.7,7.1-7.8
	V9.8C19.8,9.4,19.5,9.1,19.1,9.1z"/>
<path class="st1" d="M12,2C9.6,2,7.6,4,7.6,6.4v5.1c0,2.4,2,4.4,4.4,4.4c2.4,0,4.4-2,4.4-4.4V6.4C16.4,4,14.4,2,12,2z M13.3,8.9
	c-0.1,0.3-0.3,0.4-0.6,0.4c-0.1,0-0.1,0-0.2,0c-0.4-0.1-0.8-0.1-1.2,0c-0.3,0.1-0.6-0.1-0.7-0.4c-0.1-0.3,0.1-0.6,0.4-0.7
	c0.6-0.2,1.2-0.2,1.8,0C13.2,8.3,13.4,8.6,13.3,8.9z M13.8,7c-0.1,0.2-0.3,0.4-0.6,0.4c-0.1,0-0.1,0-0.2,0c-0.7-0.3-1.5-0.3-2.2,0
	c-0.3,0.1-0.6-0.1-0.8-0.3c-0.1-0.3,0.1-0.6,0.4-0.7c1-0.3,2-0.3,3,0C13.8,6.4,14,6.7,13.8,7z"/>
</svg>
