<?xml version="1.0" encoding="utf-8"?>
<!-- Generator: Adobe Illustrator 24.0.1, SVG Export Plug-In . SVG Version: 6.00 Build 0)  -->
<svg version="1.1" id="Layer_1" xmlns="http://www.w3.org/2000/svg" xmlns:xlink="http://www.w3.org/1999/xlink" x="0px" y="0px"
	 viewBox="0 0 24 24" style="enable-background:new 0 0 24 24;" xml:space="preserve">
<style type="text/css">
	.st0{fill:#3D63E2;}
	.st1{opacity:0.4;fill:#C3CEF5;enable-background:new    ;}
</style>
<path class="st0" d="M22,11.1v5.6c0,2.9-2.4,5.4-5.4,5.4H7.3C4.4,22,2,19.6,2,16.6V9.4h19.7c0.1,0.4,0.2,0.9,0.2,1.4
	C22,10.9,22,11,22,11.1z"/>
<path class="st1" d="M21.7,9.4H2v-3C2,4,4,2,6.4,2h2.3c1.6,0,2.1,0.5,2.8,1.4l1.4,1.9c0.3,0.4,0.4,0.5,0.9,0.5h2.8
	C19,5.7,21,7.3,21.7,9.4z"/>
</svg>
