<?xml version="1.0" encoding="utf-8"?>
<!-- Generator: Adobe Illustrator 24.0.1, SVG Export Plug-In . SVG Version: 6.00 Build 0)  -->
<svg version="1.1" id="Layer_1" xmlns="http://www.w3.org/2000/svg" xmlns:xlink="http://www.w3.org/1999/xlink" x="0px" y="0px"
	 viewBox="0 0 24 24" style="enable-background:new 0 0 24 24;" xml:space="preserve">
<style type="text/css">
	.st0{opacity:0.4;fill:#C3CEF5;enable-background:new    ;}
	.st1{fill:#3D63E2;}
</style>
<path class="st0" d="M2,13V7c0-2.8,2.2-5,5-5h10c2.8,0,5,2.2,5,5v7c0,2.7-2.2,5-5,5h-1.5c-0.3,0-0.6,0.1-0.8,0.4l-1.5,2
	c-0.7,0.9-1.7,0.9-2.4,0l-1.5-2C9.1,19.1,8.8,19,8.5,19H7c-2.8,0-5-2.2-5-5V13z"/>
<path class="st1" d="M12,12c-0.6,0-1-0.4-1-1s0.4-1,1-1s1,0.4,1,1S12.6,12,12,12z"/>
<path class="st1" d="M16,12c-0.6,0-1-0.4-1-1s0.4-1,1-1c0.5,0,1,0.4,1,1S16.6,12,16,12z"/>
<path class="st1" d="M8,12c-0.6,0-1-0.4-1-1s0.4-1,1-1s1,0.4,1,1S8.6,12,8,12z"/>
</svg>
