<?xml version="1.0" encoding="utf-8"?>
<!-- Generator: Adobe Illustrator 24.0.1, SVG Export Plug-In . SVG Version: 6.00 Build 0)  -->
<svg version="1.1" id="Layer_1" xmlns="http://www.w3.org/2000/svg" xmlns:xlink="http://www.w3.org/1999/xlink" x="0px" y="0px"
	 viewBox="0 0 24 24" style="enable-background:new 0 0 24 24;" xml:space="preserve">
<style type="text/css">
	.st0{fill:#3D63E2;}
	.st1{opacity:0.4;fill:#C3CEF5;enable-background:new    ;}
</style>
<path class="st0" d="M10.3,10.3v8.1c0,2-1.6,3.6-3.6,3.6c-2,0-3.6-1.6-3.6-3.6c0-2,1.6-3.6,3.6-3.6c0.8,0,1.6,0.3,2.2,0.8v-4.8
	L10.3,10.3z"/>
<path class="st0" d="M20.9,7.3v9.2c0,2-1.6,3.6-3.6,3.6c-2,0-3.6-1.6-3.6-3.6c0-2,1.6-3.6,3.6-3.6c0.8,0,1.6,0.3,2.2,0.8V7.7
	L20.9,7.3z"/>
<path class="st1" d="M20.9,5.2v2.1l-12,3.4v-4c0-1.5,0.9-2.6,2.3-3L17,2.2c1.2-0.3,2.2-0.2,2.9,0.3C20.5,3,20.9,3.9,20.9,5.2z"/>
</svg>
